<svg xmlns="http://www.w3.org/2000/svg" viewBox="47.423 -7.549 30.757 30.757"><path d="M70.244.387a1.247 1.247 0 0 1-.001 1.767l-5.674 5.674 5.67 5.669a1.251 1.251 0 0 1-1.769 1.77l-5.67-5.67-5.673 5.673a1.248 1.248 0 1 1-1.766-1.766l5.673-5.673-5.67-5.67a1.248 1.248 0 0 1 .002-1.768 1.246 1.246 0 0 1 1.767-.001l5.67 5.669L68.477.388a1.246 1.246 0 0 1 1.767-.001Z"/><path d="M70.244.387a1.247 1.247 0 0 1-.001 1.767l-5.674 5.674 5.67 5.669a1.251 1.251 0 0 1-1.769 1.77l-5.67-5.67-5.673 5.673a1.248 1.248 0 1 1-1.766-1.766l5.673-5.673-5.67-5.67a1.248 1.248 0 0 1 .002-1.768 1.246 1.246 0 0 1 1.767-.001l5.67 5.669L68.477.388a1.246 1.246 0 0 1 1.767-.001Z"/></svg>