<svg xmlns="http://www.w3.org/2000/svg" viewBox="0 0 20 24"><path fill-rule="evenodd" clip-rule="evenodd" d="M10 2a8 8 0 0 0-8 8c0 3.098 2.016 6.104 4.226 8.437A29.418 29.418 0 0 0 10 21.773a29.412 29.412 0 0 0 3.774-3.335C15.984 16.103 18 13.097 18 10a8 8 0 0 0-8-8Zm0 21-.555.832-.003-.002-.007-.005-.023-.015-.082-.057c-.071-.05-.174-.12-.302-.214a31.428 31.428 0 0 1-4.254-3.727C2.484 17.397 0 13.903 0 10a10 10 0 0 1 20 0c0 3.902-2.484 7.396-4.774 9.813a31.433 31.433 0 0 1-4.254 3.726 18.887 18.887 0 0 1-.384.27l-.023.016-.007.005-.002.001s-.001.001-.556-.831Zm0 0 .555.832a1.001 1.001 0 0 1-1.11 0L10 23Z"/><path fill-rule="evenodd" clip-rule="evenodd" d="M6 10a4 4 0 1 1 8 0 4 4 0 0 1-8 0Zm4-2a2 2 0 1 0 0 4 2 2 0 0 0 0-4Z"/></svg>