<svg width="40" height="40" xmlns="http://www.w3.org/2000/svg" aria-hidden="true" focusable="false"><path d="M20 0c4.235 0 8.254 1.296 11.666 3.754a3.263 3.263 0 0 1 1.928-.629 3.285 3.285 0 0 1 3.281 3.281c0 .72-.234 1.387-.629 1.929A19.804 19.804 0 0 1 40 20a19.87 19.87 0 0 1-5.858 14.142A19.87 19.87 0 0 1 20 40a19.806 19.806 0 0 1-11.665-3.754 3.263 3.263 0 0 1-1.929.629 3.285 3.285 0 0 1-3.281-3.281c0-.72.234-1.387.629-1.928A19.809 19.809 0 0 1 0 20c0-3.99 1.172-7.842 3.388-11.141a.781.781 0 1 1 1.297.871 18.375 18.375 0 0 0-1.669 3.082h7.703a3.287 3.287 0 0 1 2.95-2.49c.545-2.858 1.327-5.283 2.275-7.044.31-.576.625-1.055.938-1.453a18.286 18.286 0 0 0-7.501 3.1.781.781 0 0 1-.901-1.276A19.872 19.872 0 0 1 20 0Zm2.855 27.188h-8.012c.311 2.278.772 4.366 1.368 6.155 1.064 3.19 2.48 5.094 3.789 5.094 1.549 0 3.598-2.79 4.787-9a3.294 3.294 0 0 1-1.932-2.25Zm-9.587 0H3.012a18.376 18.376 0 0 0 1.939 3.466 3.26 3.26 0 0 1 1.455-.341 3.285 3.285 0 0 1 3.282 3.28c0 .523-.124 1.017-.342 1.456a18.206 18.206 0 0 0 7.526 3.126c-.803-1.028-1.524-2.48-2.143-4.338-.644-1.932-1.137-4.191-1.461-6.65Zm23.71 0h-7.75a3.288 3.288 0 0 1-2.896 2.486c-.546 2.865-1.33 5.296-2.282 7.058-.308.57-.62 1.045-.93 1.44 6.254-1.07 11.443-5.3 13.859-10.984ZM6.407 31.875a1.72 1.72 0 0 0-1.718 1.719 1.72 1.72 0 0 0 1.718 1.718 1.72 1.72 0 0 0 1.719-1.718 1.72 1.72 0 0 0-1.719-1.719Zm19.635-7.188a1.72 1.72 0 0 0-1.718 1.72 1.72 1.72 0 0 0 1.718 1.718 1.72 1.72 0 0 0 1.72-1.719 1.72 1.72 0 0 0-1.72-1.718ZM37.57 14.376H26.914c.18 1.803.273 3.693.273 5.625 0 1.108-.032 2.214-.094 3.299a3.293 3.293 0 0 1 2.135 2.326h8.33c.57-1.774.88-3.664.88-5.625 0-1.939-.295-3.828-.87-5.625Zm-12.225 0h-8.252a3.29 3.29 0 0 1-2.627 2.451 56.77 56.77 0 0 0-.09 3.174c0 1.938.096 3.829.281 5.625h8.199a3.29 3.29 0 0 1 2.68-2.46c.059-1.042.09-2.102.09-3.165a55.07 55.07 0 0 0-.281-5.625Zm-14.625 0H2.436A18.445 18.445 0 0 0 1.563 20c0 1.938.295 3.828.869 5.625h10.654A56.724 56.724 0 0 1 12.812 20c0-1.102.033-2.202.094-3.281a3.293 3.293 0 0 1-2.187-2.344Zm3.187-2.5a1.72 1.72 0 0 0-1.719 1.719 1.72 1.72 0 0 0 1.719 1.719 1.72 1.72 0 0 0 1.719-1.72 1.72 1.72 0 0 0-1.72-1.718Zm9.222-10.05c.803 1.028 1.524 2.48 2.143 4.338.644 1.932 1.137 4.191 1.461 6.65h10.256a18.366 18.366 0 0 0-1.939-3.467 3.262 3.262 0 0 1-1.455.341 3.285 3.285 0 0 1-3.281-3.28c0-.523.123-1.017.341-1.456a18.202 18.202 0 0 0-7.526-3.126ZM20 1.563c-1.552 0-3.603 2.796-4.79 9.02a3.294 3.294 0 0 1 1.883 2.23h8.064c-.311-2.278-.772-4.367-1.368-6.156-1.064-3.19-2.48-5.095-3.789-5.095Zm13.594 3.125a1.72 1.72 0 0 0-1.719 1.718 1.72 1.72 0 0 0 1.72 1.719 1.72 1.72 0 0 0 1.718-1.719 1.72 1.72 0 0 0-1.719-1.718ZM6.254 5.785c.207 0 .408.084.554.229a.786.786 0 0 1 0 1.105.786.786 0 0 1-1.106 0 .787.787 0 0 1-.229-.553.787.787 0 0 1 .781-.781Z" fill="#3377B3" fill-rule="nonzero"/></svg>
