<svg xmlns="http://www.w3.org/2000/svg" viewBox="0 0 16 16"><path d="M3.453.118a1.659 1.659 0 0 1 2.055.718L6.96 3.353a1.67 1.67 0 0 1-.611 2.28c-.224.128-.505.354-.575.698-.064.314-.002.59.19.847.71.946 1.911 2.147 2.857 2.857.256.192.533.254.847.19.3-.061.511-.284.646-.489l.053-.086a1.657 1.657 0 0 1 1.013-.777c.431-.115.88-.056 1.266.166l2.517 1.453.13.083c.584.412.839 1.14.638 1.826l-.061.177-.29.726c-.338.829-.623 1.433-.908 1.719-.487.486-1.281.977-2.507.977-.439 0-.933-.063-1.488-.212C6.589 14.693 1.308 9.411.212 5.322c-.564-2.105.105-3.334.765-3.995C1.315.99 2.097.653 3.17.23l.283-.111Zm1.189 1.218a.659.659 0 0 0-.823-.288l-.862.346c-.772.32-1.142.51-1.273.64-.638.639-.895 1.577-.506 3.03 1.003 3.743 6.015 8.755 9.759 9.758.451.121.86.178 1.229.178.796 0 1.37-.256 1.8-.684.14-.141.35-.559.716-1.458l.27-.676c.115-.293.019-.611-.197-.764l-.091-.06-2.517-1.453a.658.658 0 0 0-.507-.066.657.657 0 0 0-.406.31c-.303.525-.737.928-1.365 1.056a2.003 2.003 0 0 1-1.647-.37C7.2 10.068 5.932 8.8 5.165 7.778a2.003 2.003 0 0 1-.37-1.647c.128-.628.53-1.062 1.055-1.365a.67.67 0 0 0 .245-.913L4.642 1.336Z" fill="#00549F" fill-rule="nonzero"/></svg>