<svg xmlns="http://www.w3.org/2000/svg"><symbol id="symbol-appareil-photo" viewBox="0 0 42 32"><path d="M38.78 5.57H32.2l-3.32-4.43a.739.739 0 0 0-.6-.3H13.72c-.24 0-.46.11-.6.3L9.8 5.57H3.22A3.15 3.15 0 0 0 .07 8.72v19.29a3.15 3.15 0 0 0 3.15 3.15h35.57a3.15 3.15 0 0 0 3.15-3.15V8.72a3.15 3.15 0 0 0-3.15-3.15h-.01ZM14.09 2.34H27.9l2.42 3.23H11.66l2.42-3.23h.01ZM40.43 28c0 .91-.74 1.65-1.65 1.65H3.21c-.91 0-1.65-.74-1.65-1.65V8.71c0-.91.74-1.65 1.65-1.65h35.57c.91 0 1.65.74 1.65 1.65V28Z" fill="#3377B3"/><path d="M21 9.48c-4.9 0-8.88 3.98-8.88 8.88s3.99 8.88 8.88 8.88c4.89 0 8.88-3.99 8.88-8.88 0-4.89-3.99-8.88-8.88-8.88Zm0 16.27c-4.07 0-7.38-3.31-7.38-7.38s3.31-7.38 7.38-7.38 7.38 3.31 7.38 7.38-3.31 7.38-7.38 7.38Z" fill="#3377B3"/><path d="M21 14.36c-2.21 0-4 1.8-4 4s1.8 4 4 4 4-1.8 4-4-1.8-4-4-4Zm0 6.51a2.5 2.5 0 0 1 0-5 2.5 2.5 0 0 1 0 5ZM2.6 4.31h5.34c.41 0 .75-.34.75-.75s-.34-.75-.75-.75H2.6c-.41 0-.75.34-.75.75s.34.75.75.75Zm3.2 6.2a.821.821 0 0 0-.25-.16.8.8 0 0 0-.57 0c-.09.04-.18.09-.25.16-.14.14-.22.34-.22.53 0 .1.02.2.06.29.04.09.09.18.16.24.07.07.16.13.25.17.09.04.19.06.29.06.19 0 .38-.08.53-.23.06-.07.12-.15.16-.24.04-.09.06-.19.06-.29 0-.09-.03-.19-.06-.28-.04-.09-.1-.18-.16-.25Z" fill="#3377B3"/></symbol><symbol id="symbol-arrow" viewBox="0 0 18 16"><path d="M17.791 7.49 10.62.253A.713.713 0 0 0 9.607.174a.728.728 0 0 0 0 1.1l5.946 6.006H.717A.72.72 0 0 0 0 8.004c0 .4.321.723.717.723h14.836l-5.946 6a.728.728 0 0 0-.078 1.02.713.713 0 0 0 1.09 0L17.79 8.51a.728.728 0 0 0 0-1.02Z"/></symbol><symbol id="symbol-autre" viewBox="0 0 29 8"><path d="M4 7.5C2.07 7.5.5 5.93.5 4S2.07.5 4 .5 7.5 2.07 7.5 4 5.93 7.5 4 7.5Zm0-5.833A2.336 2.336 0 0 0 1.667 4 2.336 2.336 0 0 0 4 6.333 2.336 2.336 0 0 0 6.333 4 2.336 2.336 0 0 0 4 1.667ZM14.5 7.5C12.57 7.5 11 5.93 11 4S12.57.5 14.5.5 18 2.07 18 4s-1.57 3.5-3.5 3.5Zm0-5.833A2.336 2.336 0 0 0 12.167 4 2.336 2.336 0 0 0 14.5 6.333 2.336 2.336 0 0 0 16.833 4 2.336 2.336 0 0 0 14.5 1.667ZM25 7.5c-1.93 0-3.5-1.57-3.5-3.5S23.07.5 25 .5s3.5 1.57 3.5 3.5-1.57 3.5-3.5 3.5Zm0-5.833A2.336 2.336 0 0 0 22.667 4 2.336 2.336 0 0 0 25 6.333 2.336 2.336 0 0 0 27.333 4 2.336 2.336 0 0 0 25 1.667Z"/></symbol><symbol id="symbol-candidat" viewBox="0 0 20 23"><path d="M15.841 11.428a.876.876 0 0 1 .841.225A9.148 9.148 0 0 1 19.5 18.27c0 2.748-4.894 4.231-9.5 4.231S.5 21.017.5 18.27a9.152 9.152 0 0 1 2.782-6.583.876.876 0 0 1 .838-.227c.3.077.536.308.615.602a.835.835 0 0 1-.232.822 7.487 7.487 0 0 0-2.276 5.384c0 1.035 3.028 2.54 7.773 2.54 4.745 0 7.773-1.504 7.773-2.539a7.487 7.487 0 0 0-2.305-5.413.835.835 0 0 1-.24-.82.855.855 0 0 1 .613-.608ZM10 .5c3.339 0 6.045 2.652 6.045 5.923S13.34 12.346 10 12.346c-3.337-.004-6.042-2.653-6.045-5.923C3.955 3.152 6.66.5 10 .5Zm0 1.692c-2.384.003-4.315 1.896-4.318 4.231 0 2.337 1.933 4.23 4.318 4.23s4.318-1.893 4.318-4.23c0-2.337-1.933-4.23-4.318-4.23Z"/></symbol><symbol id="symbol-casque-chantier" viewBox="0 0 50 40"><path d="m49.74 23.53-2.21-3.28c-.05-6.35-2.19-11.81-6.05-15.4C37.95 1.56 33.09.03 27.43.43c-2.15.15-4.2.59-6.11 1.26l-9.98 1.87a.75.75 0 0 0-.59.57L8.42 14.34v.06c-.59 1.76-.93 3.62-.98 5.55L.6 22.5c-.38.14-.58.57-.44.95l.93 2.62c.11.3.39.5.71.5h.03l26.15-1.04 12.08 2.77-1.28 8.41c-.04.25.05.5.23.66l2.22 2.05c.14.13.32.2.51.2.06 0 .13 0 .19-.03.25-.07.45-.26.52-.5l4.45-14.32 2.24-.09c.27-.01.52-.17.64-.41.12-.24.1-.53-.05-.76l.01.02ZM12.11 4.95l4.28-.8a20.373 20.373 0 0 0-5.24 5.02l.96-4.21v-.01Zm29.28 32.57-1.05-.97 1.33-8.7a.74.74 0 0 0-.57-.84l-7.37-1.69 11.61-.46-3.94 12.67-.01-.01ZM2.33 25.06l-.5-1.4 6.63-2.48c.29-.11.49-.39.49-.7 0-9.82 8-17.79 18.6-18.55 5.31-.38 9.65.97 12.92 4.02 3.59 3.34 5.57 8.5 5.57 14.53 0 .15.04.3.13.42l1.59 2.35-45.42 1.81h-.01Z" fill="#3377B3"/><path d="M39.73 8.66C32.4 6.69 26.36 7.07 21.79 9.79c-5.37 3.2-6.68 8.44-6.73 8.66-.1.4.15.81.56.9a.747.747 0 0 0 .9-.56c.01-.05 1.2-4.84 6.04-7.72 4.21-2.51 9.86-2.83 16.78-.97a.75.75 0 1 0 .39-1.45v.01Z" fill="#3377B3"/></symbol><symbol id="symbol-check-validation" viewBox="0 0 38 38"><path d="M19 .69C8.9.69.69 8.9.69 19 .69 29.1 8.9 37.31 19 37.31c10.1 0 18.31-8.21 18.31-18.31C37.31 8.9 29.1.69 19 .69Zm0 35.12C9.73 35.81 2.19 28.27 2.19 19S9.73 2.19 19 2.19 35.81 9.73 35.81 19 28.27 35.81 19 35.81Z" fill="#3377B3"/><path d="M26.79 12.9 15.85 24.1l-4.66-4.36a.755.755 0 0 0-1.06.03c-.28.3-.27.78.04 1.06l5.19 4.86c.14.13.33.2.51.2.2 0 .39-.08.54-.23l11.45-11.72c.29-.3.28-.77-.01-1.06a.754.754 0 0 0-1.06.01v.01Z" fill="#3377B3"/></symbol><symbol id="symbol-chevron-bleu" viewBox="0 0 10 6"><path fill="#0055A0" d="M8.818 0 10 1.144 5.017 5.965V6L5 5.982 4.983 6l-.001-.035L0 1.144 1.182 0 5 3.695 8.818 0Z" fill-rule="evenodd"/></symbol><symbol id="symbol-chevron" viewBox="0 0 10 6"><path d="M8.818 0 10 1.144 5.017 5.965V6L5 5.982 4.983 6l-.001-.035L0 1.144 1.182 0 5 3.695 8.818 0Z" fill-rule="evenodd"/></symbol><symbol id="symbol-chimique" viewBox="0 0 28 54"><path d="M27.07 46.75 19.2 35.37V15.51c0-.41-.34-.75-.75-.75H9.56c-.41 0-.75.34-.75.75v19.86l-5.74 8.3L.91 46.8c-.77 1.3-.78 2.86-.03 4.17s2.1 2.09 3.61 2.09h19.03c1.51 0 2.86-.78 3.61-2.09.75-1.31.74-2.87-.06-4.22ZM10.18 36.03c.09-.13.13-.27.13-.43V16.26h7.39v3.24h-1.71c-.41 0-.75.34-.75.75s.34.75.75.75h1.71v2.28h-1.71c-.41 0-.75.34-.75.75s.34.75.75.75h1.71v2.29h-1.71c-.41 0-.75.34-.75.75s.34.75.75.75h1.71v2.28h-1.71c-.41 0-.75.34-.75.75s.34.75.75.75h1.71v3.25c0 .15.05.3.13.43l6.03 8.71c-1.53.46-5.08 1.06-9.79-1.03-3.62-1.61-6.57-1.48-8.47-1.06l4.58-6.62Zm15.65 14.2c-.48.84-1.34 1.34-2.31 1.34H4.49c-.97 0-1.83-.5-2.31-1.34-.48-.84-.47-1.84-.01-2.62l2.01-2.91c.71-.36 4.23-1.86 9.27.38 2.79 1.24 5.21 1.62 7.14 1.62 1.93 0 3.4-.39 4.16-.67l1.06 1.53c.49.83.5 1.83.02 2.67ZM9.35 12.73a2.68 2.68 0 1 0 0-5.36 2.68 2.68 0 0 0 0 5.36Zm0-3.85c.65 0 1.18.53 1.18 1.18 0 .65-.53 1.18-1.18 1.18-.65 0-1.18-.53-1.18-1.18 0-.65.53-1.18 1.18-1.18Zm6.85-.07c2.17 0 3.94-1.77 3.94-3.94S18.37.93 16.2.93s-3.94 1.77-3.94 3.94 1.77 3.94 3.94 3.94Zm0-6.38c1.34 0 2.44 1.09 2.44 2.44 0 1.35-1.09 2.44-2.44 2.44-1.35 0-2.44-1.09-2.44-2.44 0-1.35 1.09-2.44 2.44-2.44Zm1.11 9.62c0 .96.78 1.75 1.75 1.75s1.75-.78 1.75-1.75-.78-1.75-1.75-1.75-1.75.78-1.75 1.75Zm1.99 0c0 .27-.49.27-.49 0 0-.14.11-.25.25-.25s.25.11.25.25h-.01Z" fill="#3377B3"/></symbol><symbol id="symbol-collaborateurs" viewBox="0 0 56 32"><path d="M28.05 16.53c4.45 0 8.07-3.62 8.07-8.07S32.58.29 28.05.29s-8.17 3.59-8.17 8.17 3.59 8.07 8.17 8.07Zm0-14.74c3.68 0 6.57 2.93 6.57 6.67 0 3.74-2.95 6.57-6.57 6.57s-6.67-2.89-6.67-6.57 2.93-6.67 6.67-6.67Zm0 17.64c-6.57 0-12.08 4.92-12.81 11.45-.05.41.25.78.66.83.41.04.78-.25.83-.66.65-5.77 5.52-10.12 11.32-10.12 5.8 0 10.57 4.35 11.22 10.12.04.38.37.67.74.67h.08c.41-.05.71-.42.66-.83-.74-6.53-6.2-11.45-12.71-11.45l.01-.01Zm18.3.95c3.36 0 6.09-2.73 6.09-6.09S49.71 8.3 46.35 8.3s-5.99 2.69-5.99 5.99c0 3.3 2.69 6.09 5.99 6.09Zm0-10.58c2.53 0 4.59 2.02 4.59 4.49s-2.02 4.59-4.59 4.59-4.49-2.06-4.49-4.59 2.06-4.49 4.49-4.49Zm0 12.9c-1.41 0-2.89.37-4.29 1.07-.37.19-.52.64-.34 1.01.19.37.64.52 1.01.34.83-.42 2.13-.91 3.62-.91 4 0 7.43 2.95 7.96 6.87.05.38.37.65.74.65h.1c.41-.06.7-.43.64-.84-.63-4.66-4.7-8.17-9.45-8.17l.01-.02Zm-36.7-2.32c3.3 0 5.99-2.73 5.99-6.09S12.95 8.3 9.65 8.3c-3.3 0-6.09 2.69-6.09 5.99 0 3.3 2.73 6.09 6.09 6.09Zm0-10.58c2.44 0 4.49 2.06 4.49 4.49s-2.02 4.59-4.49 4.59-4.59-2.02-4.59-4.59S7.12 9.8 9.65 9.8Zm4.29 13.96c-1.4-.7-2.88-1.07-4.29-1.07C4.9 22.69.84 26.2.2 30.86c-.06.41.23.79.64.84h.1c.37 0 .69-.27.74-.65.53-3.92 3.96-6.87 7.96-6.87 1.49 0 2.79.5 3.62.91.37.19.82.04 1.01-.34.19-.37.04-.82-.34-1.01l.01.02Z" fill="#3377B3"/></symbol><symbol id="symbol-collectivite" viewBox="0 0 25 24"><path d="M23.9 11.395h-5.4V8.368a.606.606 0 0 0-.356-.553L13.1 5.554V4.132h2.4a.607.607 0 0 0 .6-.605V1.104a.607.607 0 0 0-.176-.428A.597.597 0 0 0 15.5.5h-3a.597.597 0 0 0-.424.177.607.607 0 0 0-.176.428v4.449L6.856 7.815a.605.605 0 0 0-.356.553v3.027H1.1a.597.597 0 0 0-.424.177A.608.608 0 0 0 .5 12v10.895c0 .16.063.314.176.428a.597.597 0 0 0 .424.177h22.8a.598.598 0 0 0 .424-.177.607.607 0 0 0 .176-.428V12a.607.607 0 0 0-.176-.428.597.597 0 0 0-.424-.177ZM13.1 1.71h1.8v1.21h-1.8V1.71ZM7.7 8.762l4.8-2.153 4.8 2.153v1.422H7.7V8.762Zm-6 3.843h4.8v9.684H1.7v-9.684Zm6-1.21h9.6v10.894h-2.4v-5.447a.608.608 0 0 0-.176-.428.597.597 0 0 0-.424-.177h-3.6a.596.596 0 0 0-.424.177.607.607 0 0 0-.176.428v5.447H7.7V11.395Zm3.6 10.894v-4.842h2.4v4.842h-2.4Zm12 0h-4.8v-9.684h4.8v9.684Z"/></symbol><symbol id="symbol-contact" viewBox="0 0 22 18"><path d="M3 2c-.548 0-1 .452-1 1v12c0 .548.452 1 1 1h16c.548 0 1-.452 1-1V3c0-.548-.452-1-1-1H3ZM0 3c0-1.652 1.348-3 3-3h16c1.652 0 3 1.348 3 3v12c0 1.652-1.348 3-3 3H3c-1.652 0-3-1.348-3-3V3Z"/><path fill-rule="evenodd" clip-rule="evenodd" d="M.18 2.427a1 1 0 0 1 1.393-.246L11 8.779l9.427-6.598a1 1 0 1 1 1.146 1.638l-10 7a1 1 0 0 1-1.146 0l-10-7A1 1 0 0 1 .18 2.427Z"/></symbol><symbol id="symbol-cross" viewBox="47.423 -7.549 30.757 30.757"><path d="M70.244.387a1.247 1.247 0 0 1-.001 1.767l-5.674 5.674 5.67 5.669a1.251 1.251 0 0 1-1.769 1.77l-5.67-5.67-5.673 5.673a1.248 1.248 0 1 1-1.766-1.766l5.673-5.673-5.67-5.67a1.248 1.248 0 0 1 .002-1.768 1.246 1.246 0 0 1 1.767-.001l5.67 5.669L68.477.388a1.246 1.246 0 0 1 1.767-.001Z"/><path d="M70.244.387a1.247 1.247 0 0 1-.001 1.767l-5.674 5.674 5.67 5.669a1.251 1.251 0 0 1-1.769 1.77l-5.67-5.67-5.673 5.673a1.248 1.248 0 1 1-1.766-1.766l5.673-5.673-5.67-5.67a1.248 1.248 0 0 1 .002-1.768 1.246 1.246 0 0 1 1.767-.001l5.67 5.669L68.477.388a1.246 1.246 0 0 1 1.767-.001Z"/></symbol><symbol id="symbol-document" viewBox="0 0 32 42"><path d="M31.22 12.23c0-.07-.02-.13-.04-.19 0-.02-.01-.05-.02-.07a.662.662 0 0 0-.15-.22L19.96.7a.855.855 0 0 0-.22-.15.185.185 0 0 0-.07-.02 1.18 1.18 0 0 0-.2-.04H4.53C2.45.49.76 2.18.76 4.26v33.49c0 2.08 1.69 3.77 3.77 3.77h22.93c2.08 0 3.77-1.69 3.77-3.77V12.23h-.01ZM20.18 3.04l4.24 4.24 4.24 4.24h-6.22c-1.25 0-2.27-1.02-2.27-2.27V3.03l.01.01Zm9.55 34.7c0 1.25-1.02 2.27-2.27 2.27H4.53c-1.25 0-2.27-1.02-2.27-2.27V4.25c0-1.25 1.02-2.27 2.27-2.27h14.15v7.28c0 2.08 1.69 3.77 3.77 3.77h7.28v24.72-.01Z" fill="#3377B3"/><path d="M7.1 15.83h7.34c.41 0 .75-.34.75-.75s-.34-.75-.75-.75H7.1c-.41 0-.75.34-.75.75s.34.75.75.75Zm-.75 4.82c0 .41.34.75.75.75h17.8c.41 0 .75-.34.75-.75s-.34-.75-.75-.75H7.1c-.41 0-.75.34-.75.75Zm18.55 4.82H7.1c-.41 0-.75.34-.75.75s.34.75.75.75h17.8c.41 0 .75-.34.75-.75s-.34-.75-.75-.75Zm0 5.57H7.1c-.41 0-.75.34-.75.75s.34.75.75.75h17.8c.41 0 .75-.34.75-.75s-.34-.75-.75-.75Z" fill="#3377B3"/></symbol><symbol id="symbol-download" viewBox="0 0 20 24"><path d="M5.833 5.365a.84.84 0 0 1 .834.847.84.84 0 0 1-.834.847H1.667v15.247h16.666V7.059h-4.166a.84.84 0 0 1-.834-.847.84.84 0 0 1 .834-.847h5a.84.84 0 0 1 .833.847v16.94a.84.84 0 0 1-.833.848H.833A.84.84 0 0 1 0 23.153V6.212a.84.84 0 0 1 .833-.847ZM10 0c.46 0 .833.38.833.847v13.749l3.598-3.413a.823.823 0 0 1 1.095-.038l.083.08a.857.857 0 0 1-.04 1.196l-5 4.744a.823.823 0 0 1-1.138 0l-5-4.743a.857.857 0 0 1-.04-1.198.824.824 0 0 1 1.178-.04l3.597 3.413V.847c0-.432.319-.788.73-.84Z" fill="#0055A0"/></symbol><symbol id="symbol-eau" viewBox="0 0 30 41"><path d="M14.007.867C14.136-.332 16-.287 16 1l.003.252c.077 2.754 1.416 5.203 4.527 8.851l.604.699.31.35 2.163 2.42C28.067 18.608 30 21.96 30 26.235 30 34.393 23.28 41 15 41 6.72 41 0 34.393 0 26.235c0-4.276 1.932-7.627 6.395-12.665l2.47-2.768C12.51 6.644 14 4.032 14 1ZM15 5.559l-.12.257c-.845 1.769-2.193 3.622-4.122 5.857l-.705.806-2.163 2.42C3.733 19.59 2 22.597 2 26.235 2 33.281 7.817 39 15 39s13-5.719 13-12.765c0-3.638-1.733-6.644-5.888-11.334l-.685-.768-1.33-1.485-.855-.975c-1.929-2.235-3.277-4.088-4.123-5.857L15 5.56ZM7.462 25.235a1 1 0 0 1 1 1c0 3.538 2.923 6.412 6.538 6.412a1 1 0 0 1 0 2c-4.712 0-8.538-3.762-8.538-8.412a1 1 0 0 1 1-1Z"/></symbol><symbol id="symbol-education" viewBox="0 0 45 36"><path d="M.55 11.76a.78.78 0 0 1 .431-.698L21.261.922A.78.78 0 0 1 21.61.84h1.56a.78.78 0 0 1 .349.082l20.28 10.14a.78.78 0 0 1 .431.698v1.56a.78.78 0 0 1-.431.698l-5.81 2.904.001 11.998a.78.78 0 0 1-.262.583c-8.48 7.542-22.196 7.542-30.676 0a.78.78 0 0 1-.262-.583l-.001-11.999-4.679-2.339v4.978a.78.78 0 0 1-1.56 0Zm7.799 5.941v10.864l.038.032c7.707 6.583 19.87 6.67 27.696.26l.346-.291V17.702l-12.91 6.456a.78.78 0 0 1-.229.073l-.12.009h-1.56a.78.78 0 0 1-.349-.082L8.35 17.7ZM22.987 2.4h-1.195L2.109 12.242v.596l19.685 9.842h1.191l19.684-9.842v-.597L22.987 2.4Z" fill="#3377B3"/></symbol><symbol id="symbol-energie-renouvelable" viewBox="0 0 44 38"><path d="M16.083 2.641a.78.78 0 0 1 .304 1.174c-.807 1.09-1.273 2.319-1.591 3.964-.064.33-.11.597-.171 1.001l-.24 1.637c-.38 2.453-.769 3.636-1.769 4.86-2.015 2.465-5.093 3.445-7.744 2.699-.021.339-.032.68-.032 1.023 0 9.478 7.683 17.16 17.16 17.16.96 0 1.93-.09 2.922-.263a.78.78 0 1 1 .269 1.537 18.451 18.451 0 0 1-3.19.286C11.66 37.72 3.28 29.34 3.28 19c0-.562.024-1.121.074-1.675a6.29 6.29 0 0 1-.896-.644C-.453 14.174-.604 9.529 2.037 6.236c3.2-3.99 9.878-5.493 14.046-3.595ZM22 .28C32.339.28 40.72 8.66 40.72 19c0 .563-.025 1.122-.075 1.676.312.183.612.398.897.643 2.912 2.506 3.062 7.151.421 10.444-3.2 3.99-9.878 5.493-14.046 3.595a.78.78 0 0 1-.304-1.174c.807-1.089 1.274-2.318 1.591-3.964.056-.288.098-.529.15-.855l.262-1.783c.38-2.453.768-3.636 1.768-4.86 2.015-2.464 5.094-3.445 7.744-2.699.022-.339.032-.68.032-1.023 0-9.478-7.683-17.16-17.16-17.16-.96 0-1.93.09-2.922.263A.78.78 0 1 1 18.81.566 18.451 18.451 0 0 1 22 .28Zm10.592 23.43c-.845 1.033-1.154 2.125-1.531 4.762l-.12.831-.114.713-.091.5c-.281 1.458-.679 2.658-1.308 3.743l.128.038c3.472.97 8.437-.322 11.003-3.284l.188-.226c2.138-2.667 2.019-6.357-.223-8.285a4.818 4.818 0 0 0-.115-.096 18.641 18.641 0 0 1-4.224 8.803.78.78 0 1 1-1.182-1.018 17.084 17.084 0 0 0 3.9-8.225l.06-.359c-2.11-.722-4.68.033-6.371 2.103ZM26.67 8.988l-1.41 8.451h3.76a.78.78 0 0 1 .622 1.252l-.07.08-10.92 10.92c-.537.537-1.446.069-1.321-.68l1.408-8.452H14.98a.78.78 0 0 1-.622-1.25l.07-.08 10.92-10.92c.537-.537 1.446-.07 1.322.679Zm-1.94 2.144-7.867 7.867h2.797a.78.78 0 0 1 .78.808l-.01.1-1.161 6.96 7.868-7.868H24.34a.78.78 0 0 1-.78-.807l.01-.1 1.16-6.96ZM3.254 7.212c-2.139 2.667-2.02 6.357.222 8.285l.116.097A18.64 18.64 0 0 1 7.816 6.79a.78.78 0 1 1 1.182 1.018 17.08 17.08 0 0 0-3.96 8.585c2.108.721 4.678-.034 6.37-2.104.775-.947 1.1-1.943 1.438-4.134l.214-1.459.113-.713.067-.37.112-.56c.275-1.266.654-2.336 1.22-3.314l-.128-.037c-3.558-.994-8.686.388-11.19 3.51Z" fill="#3377B3"/></symbol><symbol id="symbol-entreprise" viewBox="0 0 23 20"><path d="M21.86 3.033h-5.848V2.4c0-1.048-.868-1.9-1.934-1.9H8.922c-1.066 0-1.934.852-1.934 1.9v.633H1.145a.64.64 0 0 0-.645.634V17.6c0 1.048.867 1.9 1.934 1.9h18.132c1.067 0 1.934-.852 1.934-1.9V3.678c-.025-.416-.285-.642-.64-.645ZM8.276 2.4c0-.35.29-.633.645-.633h5.156a.64.64 0 0 1 .645.633v.633H8.277V2.4ZM20.96 4.3l-2.001 5.9a.643.643 0 0 1-.612.433h-3.625V10a.639.639 0 0 0-.645-.633H8.922a.639.639 0 0 0-.645.633v.633H4.652a.643.643 0 0 1-.612-.433l-2-5.9h18.92Zm-7.527 6.333V11.9H9.566v-1.267h3.868ZM21.21 17.6a.64.64 0 0 1-.645.633H2.434a.64.64 0 0 1-.645-.633V7.57l1.028 3.03a1.929 1.929 0 0 0 1.835 1.3h3.625v.633c0 .35.289.634.645.634h5.156a.639.639 0 0 0 .645-.634V11.9h3.625c.834 0 1.571-.522 1.835-1.3l1.028-3.03V17.6Z"/></symbol><symbol id="symbol-environnement" viewBox="0 0 42 38"><path d="M19.44.28c2.766 0 5.452.608 7.92 1.764a.78.78 0 1 1-.661 1.413A17.065 17.065 0 0 0 19.44 1.84c-2.473 0-4.824.523-6.948 1.465l-.401.894.145.073c.389.213.783.548 1.285 1.039l.342.338c.572.561.904.815 1.22.898l.063.014.044-.04c.163-.166.224-.428.237-.92l.002-.172v-.31c.006-.803.096-1.243.532-1.636.215-.194.597-.323 1.02-.378 2.546-.321 6.233 3.012 5.543 5.208-.23.733-.691 1.045-1.634 1.398l-.367.137-.298.124c-.443.204-.694.424-.858.777-.126.272-.147.464-.129.935l.006.18c.01.39-.011.607-.11.904a2.108 2.108 0 0 1-.415.718c-.279.324-.598.54-1.021.737a6.503 6.503 0 0 1-.071.033l-.274.12c-.363.158-.443.22-.477.322a1.037 1.037 0 0 0-.05.431l-.002-.027.124.31c.075.198.118.347.14.516l.013.132c.045.71-.427 1.437-1.2 1.47a.78.78 0 0 1-.663-.32 10.067 10.067 0 0 1-.222-.319l-.315-.469c-.44-.631-.717-.863-1.09-.904-.508-.056-1.038.24-1.272.708-.037.075-.05.105-.073.17-.07.21-.102.465-.067.778.143 1.265 1.417 2.188 3.5 2.622.343.071.491.07.759.021l.257-.045c.408-.063.749-.064 1.282.016 1.155.175 1.796.505 2.684 1.224l.466.37c.499.373.933.588 1.609.762l.633.157c.166.04.282.07.395.103l.174.051c.792.24 1.425.57 2.006 1.108.158.145.288.317.4.523.45.821.424 1.784.08 2.832-.214.651-.476 1.167-.872 1.838-.663 1.122-1.218 1.665-2.397 2.542l-.359.27c-.53.409-.853.718-1.199 1.169l-.245.317c-.736.954-1.065 1.693-1.137 3.085 8.398-.38 15.221-6.799 16.235-15.016-2.629.694-5.656-.292-7.646-2.726-1-1.224-1.388-2.407-1.768-4.86l-.217-1.478c-.057-.387-.1-.65-.15-.921l-.12-.611c-.316-1.462-.771-2.587-1.516-3.592a.78.78 0 0 1 .304-1.174c4.168-1.898 10.846-.395 14.046 3.595 2.641 3.293 2.49 7.938-.421 10.444-.279.24-.572.45-.877.633-.73 9.669-8.808 17.287-18.665 17.287C9.101 37.72.72 29.339.72 19 .72 8.66 9.1.28 19.44.28ZM3.664 12.234l-.005.016A17.105 17.105 0 0 0 2.28 19c0 8.583 6.302 15.695 14.532 16.96-.363-.767-.537-1.913-.492-3.72a19.73 19.73 0 0 1 .165-2.101l.12-.959c.059-.506.058-.661.013-.81l-.054-.143a1.302 1.302 0 0 0-.118-.222c-.154-.237-.28-.36-.537-.55l-.216-.162a3.217 3.217 0 0 1-.798-.835c-.735-1.082-.863-2.502-.435-4.239l.041-.158-.106-.01a11.155 11.155 0 0 1-2.666-.62l-.384-.15c-3.2-1.306-4.96-3.414-6.635-6.598a16.302 16.302 0 0 1-1.046-2.449Zm14.1 9.097c-.423-.064-.61-.056-.943.006l-.273.046-.182.02-.049.001-.013.095-.028.1c-.651 1.843-.651 3.158-.09 3.982.16.238.273.341.588.573l.224.17c.306.243.524.474.756.83.104.16.189.321.256.487.224.553.27.658.146 1.709l-.17 1.38c-.058.513-.092.998-.106 1.55-.054 2.132.19 2.961.556 3.332.041.042.085.082.131.12l.126.093.006-.08c.12-1.458.521-2.405 1.29-3.448l.392-.512c.491-.64.947-1.054 1.71-1.625l.38-.284c.865-.66 1.263-1.076 1.757-1.913.79-1.336 1.15-2.43.767-3.13a.472.472 0 0 0-.09-.124c-.39-.361-.818-.584-1.4-.761a7.384 7.384 0 0 0-.305-.086l-.675-.167-.448-.12c-.835-.25-1.423-.586-2.092-1.12l-.453-.363c-.593-.46-.996-.644-1.768-.761ZM10.248 4.507l-.234.157a17.25 17.25 0 0 0-5.447 5.78l.151-.255.048.214c.232.99.546 1.896.925 2.735l.194.415.205.403c1.519 2.886 3.076 4.75 5.845 5.882l.144.055-.06-.049c-.716-.606-1.185-1.366-1.34-2.28l-.03-.215a3.325 3.325 0 0 1 .14-1.454c.05-.148.086-.23.154-.365.524-1.048 1.675-1.69 2.838-1.563.568.063.998.257 1.398.613l.106.1.014-.093.04-.192.058-.195c.216-.643.596-.933 1.333-1.254.163-.07.233-.101.306-.135l.134-.067c.165-.088.278-.172.368-.277a.564.564 0 0 0 .116-.191.881.881 0 0 0 .032-.301l-.013-.452c-.009-.568.051-.941.28-1.433.379-.814.973-1.277 1.858-1.638l.086-.034.59-.223c.398-.157.516-.245.549-.35.31-.987-2.34-3.384-3.858-3.192l-.17.025c-.003.055-.013.162-.017.335l-.001.113v.307c-.006 1.322-.271 2.109-1.301 2.624a.78.78 0 0 1-.35.083c-1.012 0-1.598-.406-2.726-1.534l-.16-.158c-.718-.703-1.056-.918-1.463-.918l-.104-.007a.78.78 0 0 1-.608-1.093l-.027.075Zm27.939 5.825c-2.505-3.122-7.632-4.504-11.19-3.51l-.129.037c.572.988.952 2.07 1.228 3.353l.08.392.091.499a10 10 0 0 1 .043.259l.284 1.913c.339 2.19.664 3.187 1.438 4.134 1.743 2.133 4.42 2.87 6.562 2.033.004-.147.006-.294.006-.442 0-2.209-.67-4.019-1.788-5.472a8.062 8.062 0 0 0-1.222-1.278 4.655 4.655 0 0 0-.511-.381.78.78 0 0 1 .802-1.338c.566.34 1.37 1.01 2.167 2.046 1.225 1.592 1.995 3.548 2.1 5.874 2.063-1.968 2.117-5.527.039-8.12Z" fill="#3377B3"/></symbol><symbol id="symbol-euro" viewBox="0 0 16 16"><path d="M15.735 12.54a1.086 1.086 0 0 0-1.513-.1 6.067 6.067 0 0 1-5.048 1.35 5.982 5.982 0 0 1-4.203-3.06h4.466c.593 0 1.073-.471 1.073-1.053 0-.583-.48-1.054-1.073-1.054h-5.12a5.938 5.938 0 0 1-.036-.624c0-.21.012-.419.034-.627h5.12c.592 0 1.072-.472 1.072-1.054 0-.582-.48-1.054-1.073-1.054h-4.46C6.007 3.326 8.05 2.11 10.278 2.108a6.005 6.005 0 0 1 3.703 1.256c.3.245.712.31 1.075.17a1.046 1.046 0 0 0 .25-1.827A8.152 8.152 0 0 0 10.28 0C6.86.005 3.806 2.11 2.636 5.267H1.073C.48 5.267 0 5.738 0 6.32s.48 1.054 1.073 1.054H2.17c-.016.21-.032.415-.032.626 0 .212.016.416.031.622H1.073A1.064 1.064 0 0 0 0 9.677c0 .582.48 1.053 1.073 1.053h1.563c.914 2.48 3.014 4.357 5.613 5.016a8.24 8.24 0 0 0 7.383-1.718 1.042 1.042 0 0 0 .103-1.488Z"/></symbol><symbol id="symbol-facebook" viewBox="0 0 10 18"><path d="M10 0H7.273c-2.51 0-4.546 2.015-4.546 4.5v2.7H0v3.6h2.727V18h3.637v-7.2H9.09L10 7.2H6.364V4.5c0-.497.407-.9.909-.9H10V0Z" fill-rule="evenodd"/></symbol><symbol id="symbol-filters" viewBox="0 0 16 14"><path fill-rule="evenodd" clip-rule="evenodd" d="M2.567 1.273H.615A.626.626 0 0 0 0 1.909c0 .352.276.636.615.636h1.952c.253.742.937 1.273 1.74 1.273.805 0 1.488-.531 1.742-1.273h9.336c.34 0 .615-.284.615-.636a.626.626 0 0 0-.615-.636H6.049C5.795.53 5.112 0 4.308 0S2.82.531 2.567 1.273Zm1.125.636c0-.351.276-.636.616-.636.34 0 .615.285.615.636a.626.626 0 0 1-.615.636.626.626 0 0 1-.616-.636Zm9.846 3.182c.804 0 1.488.531 1.742 1.273h.105c.34 0 .615.285.615.636a.626.626 0 0 1-.615.636h-.105c-.254.742-.938 1.273-1.741 1.273-.804 0-1.488-.531-1.742-1.273H.615A.626.626 0 0 1 0 7c0-.351.276-.636.615-.636h11.182c.254-.742.938-1.273 1.742-1.273ZM12.923 7c0-.351.276-.636.616-.636.34 0 .615.285.615.636a.626.626 0 0 1-.615.636.626.626 0 0 1-.616-.636Zm-3.797 4.454c-.254-.74-.938-1.272-1.741-1.272-.804 0-1.488.531-1.741 1.272H.615a.626.626 0 0 0-.615.637c0 .351.276.636.615.636h5.029C5.897 13.47 6.58 14 7.384 14c.804 0 1.488-.531 1.742-1.273h6.259c.34 0 .615-.285.615-.636a.626.626 0 0 0-.615-.636h-6.26Zm-1.741 0a.626.626 0 0 0-.616.637c0 .351.276.636.616.636.34 0 .615-.285.615-.636a.626.626 0 0 0-.615-.636Z"/></symbol><symbol id="symbol-fleche-2" viewBox="0 0 44 28"><path d="M43.21 16.45 27.7.94a.754.754 0 0 0-1.06 0c-.29.29-.29.77 0 1.06l14.98 14.98-9.03 9.03c-.29.29-.29.77 0 1.06.15.15.34.22.53.22s.38-.07.53-.22l9.56-9.56c.29-.29.29-.77 0-1.06Z" fill="#3377B3"/><path d="M36.02 16.98c0-.41-.34-.75-.75-.75H1.32c-.41 0-.75.34-.75.75s.34.75.75.75h33.95c.41 0 .75-.34.75-.75Z" fill="#3377B3"/></symbol><symbol id="symbol-fleche" viewBox="0 0 50 34"><path d="M49.06 19.52 29.98.44a.774.774 0 0 0-1.06 0l-4.33 4.33c-.29.29-.29.77 0 1.06l14.22 14.22-8.11 8.11a.75.75 0 0 0 0 1.06l4.33 4.33c.15.15.34.22.53.22s.38-.07.53-.22l12.97-12.97a.75.75 0 0 0 0-1.06Zm-13.5 12.44-3.27-3.27 8.11-8.11a.75.75 0 0 0 0-1.06L26.18 5.3l3.27-3.27 14.22 14.22 3.8 3.8-11.91 11.91Z" fill="#3377B3"/><path d="m31.94 23.64 2.94-3.06c.28-.29.28-.75 0-1.04l-2.94-3.06a.741.741 0 0 0-.54-.23H4.42c-.2 0-.4.08-.54.23L.94 19.54c-.28.29-.28.75 0 1.04l2.94 3.06c.14.15.34.23.54.23H31.4c.2 0 .4-.08.54-.23Zm-27.2-1.27-2.22-2.31 2.22-2.31h26.34l2.22 2.31-2.22 2.31H4.74Z" fill="#3377B3"/></symbol><symbol id="symbol-grue" viewBox="0 0 54 52"><path d="M51.21 7.55h-4.95L17.75.37h-.21c-.06 0-.12.02-.18.03-.03 0-.05 0-.08.02h-.01L.53 7.62s-.03.03-.05.04c-.07.04-.13.07-.18.13-.03.04-.05.08-.08.12-.03.04-.06.08-.08.12-.03.07-.04.14-.04.22 0 .02-.01.04-.01.06v8.56c0 .41.34.75.75.75h8.34c.41 0 .75-.34.75-.75v-3.88h3.15v33.65h-7.3c-.41 0-.75.34-.75.75v3.53c0 .41.34.75.75.75h23.3c.41 0 .75-.34.75-.75v-3.53c0-.41-.34-.75-.75-.75h-6.99V12.98h22.44v10.96c0 1.03.62 1.97 1.59 2.41.9.41 1.37 1.38 1.15 2.36-.17.73-.77 1.33-1.5 1.5-.64.15-1.27 0-1.77-.39-.49-.39-.77-.98-.77-1.6 0-.41-.34-.75-.75-.75s-.75.34-.75.75c0 1.09.49 2.1 1.34 2.77.63.51 1.41.77 2.21.77.27 0 .55-.03.82-.09 1.3-.3 2.33-1.33 2.63-2.63.39-1.69-.43-3.36-2-4.06-.44-.2-.71-.6-.71-1.04V12.98h5.19c1.5 0 2.71-1.22 2.71-2.71s-1.22-2.71-2.71-2.71v-.01Zm-34.73 8.19-1.91 1.79v-3.57l1.91 1.79v-.01Zm-.76-2.76h3.71l-1.86 1.74-1.86-1.74h.01Zm1.86 3.79 2.66 2.49-2.66 2.49-2.66-2.49 2.66-2.49Zm-1.1 6-1.91 1.79v-3.57l1.91 1.79v-.01Zm1.1 1.03 2.66 2.49-2.66 2.49-2.66-2.49 2.66-2.49Zm-1.1 6-1.91 1.79v-3.57l1.91 1.79v-.01Zm1.1 1.03 2.66 2.49-2.66 2.49-2.66-2.49 2.66-2.49Zm-1.1 6-1.91 1.79v-3.57l1.91 1.79v-.01Zm1.1 1.03 2.66 2.49-2.66 2.49-2.66-2.49 2.66-2.49Zm-1.1 6-1.91 1.79v-3.57l1.91 1.79v-.01Zm1.1 1.03 1.86 1.74h-3.71l1.86-1.74h-.01Zm1.1-1.03 1.91-1.79v3.57l-1.91-1.79v.01Zm0-7.03 1.91-1.79v3.57l-1.91-1.79v.01Zm0-7.03 1.91-1.79v3.57l-1.91-1.79v.01Zm0-7.03 1.91-1.79v3.57l-1.91-1.79v.01Zm0-7.03 1.91-1.79v3.57l-1.91-1.79v.01Zm-4.1-4.26V9.05h6.01v2.43h-6.01Zm0-3.93V5.02l3.01-2.88 3.01 2.88v2.53h-6.02Zm-5.4 0h-4.7l9.59-4.13-.77.73c-.15.14-.23.34-.23.54v2.85h-3.9l.01.01Zm12.68-3.39-1.71-1.64 19.98 5.03H22.09V4.7c0-.2-.08-.4-.23-.54ZM8.43 16.11H1.59V9.05h6.84v7.06Zm1.5-4.63V9.05h3.15v2.43H9.93Zm18.4 38.67H6.53v-2.03h21.8v2.03Zm22.89-38.67H22.09V9.05h29.13c.67 0 1.21.54 1.21 1.21 0 .67-.54 1.21-1.21 1.21v.01Z" fill="#3377B3"/></symbol><symbol id="symbol-habitat" viewBox="0 0 42 36"><path d="M31.14.96c.43 0 .78.35.78.78v31.979l2.34.001a.78.78 0 0 1 0 1.56h-3.12l-.013-.001h-4.654l-.013.001-.013-.001h-5.434L21 35.28l-.013-.001h-5.434l-.013.001-.013-.001h-4.654l-.013.001-.013-.001-3.107.001a.78.78 0 0 1 0-1.56l2.34-.001V1.74a.78.78 0 0 1 .674-.773L10.86.96h20.28Zm-.78 7.8H11.64v24.959h3.12V26.7c0-.43.35-.78.78-.78h10.92c.43 0 .78.35.78.78v7.019h3.12V8.76ZM20.22 27.48h-3.9v6.239h3.9V27.48Zm5.46 0h-3.9v6.239h3.9V27.48ZM40.5 7.2c.43 0 .78.35.78.78v23.4a.78.78 0 0 1-1.56 0V8.759l-5.46.001a.78.78 0 0 1-.773-.674l-.007-.106c0-.43.35-.78.78-.78h6.24Zm-32.76 0a.78.78 0 0 1 0 1.56l-5.46-.001V31.38a.78.78 0 0 1-.674.773l-.106.007a.78.78 0 0 1-.78-.78V7.98c0-.43.35-.78.78-.78h6.24Zm29.64 20.28a.78.78 0 0 1 0 1.56h-3.12a.78.78 0 0 1 0-1.56h3.12Zm-29.64 0a.78.78 0 0 1 0 1.56H4.62a.78.78 0 0 1 0-1.56h3.12Zm29.64-4.68a.78.78 0 0 1 0 1.56h-3.12a.78.78 0 0 1 0-1.56h3.12Zm-29.64 0a.78.78 0 0 1 0 1.56H4.62a.78.78 0 0 1 0-1.56h3.12Zm18.72-1.56a.78.78 0 0 1 0 1.56H15.54a.78.78 0 0 1 0-1.56h10.92Zm10.92-3.12a.78.78 0 0 1 0 1.56h-3.12a.78.78 0 0 1 0-1.56h3.12Zm-29.64 0a.78.78 0 0 1 0 1.56H4.62a.78.78 0 0 1 0-1.56h3.12Zm18.72-1.56a.78.78 0 0 1 0 1.56H15.54a.78.78 0 0 1 0-1.56h10.92Zm10.92-3.12a.78.78 0 0 1 0 1.56h-3.12a.78.78 0 0 1 0-1.56h3.12Zm-29.64 0a.78.78 0 0 1 0 1.56H4.62a.78.78 0 0 1 0-1.56h3.12Zm18.72-1.56a.78.78 0 0 1 0 1.56H15.54a.78.78 0 0 1 0-1.56h10.92Zm3.9-9.36H11.64V7.2h18.72V2.52Z" fill="#3377B3"/></symbol><symbol id="symbol-info" viewBox="0 0 24 24"><path d="M12 0c6.632 0 12 5.367 12 12s-5.367 12-12 12C5.368 24 0 18.633 0 12 0 5.368 5.367 0 12 0Zm0 1.875A10.12 10.12 0 0 0 1.875 12 10.12 10.12 0 0 0 12 22.125 10.12 10.12 0 0 0 22.125 12 10.12 10.12 0 0 0 12 1.875Zm0 8.172c.518 0 .938.42.938.937v6.037a.938.938 0 1 1-1.876 0v-6.037c0-.518.42-.937.938-.937Zm0-3.68A1.266 1.266 0 1 1 12 8.9a1.266 1.266 0 0 1 0-2.531Z"/></symbol><symbol id="symbol-instagram" viewBox="0 0 20 20"><path d="M11.065 0c1.155.003 1.72.01 2.225.027l.2.007.203.008.438.02c1.062.047 1.79.22 2.426.465.665.25 1.27.645 1.77 1.153a4.88 4.88 0 0 1 1.157 1.774c.246.633.418 1.363.465 2.426a60 60 0 0 1 .025.616l.006.193c.013.452.017.944.02 1.864v2.476c-.004 1.8-.018 2.18-.059 3.095-.046 1.063-.219 1.79-.465 2.426a5.116 5.116 0 0 1-2.927 2.927c-.633.246-1.363.418-2.426.464-.267.012-.488.022-.713.03l-.194.006a82.88 82.88 0 0 1-2.188.022l-.746.001H8.973a80.87 80.87 0 0 1-2.19-.023l-.193-.007a72.631 72.631 0 0 1-.713-.029c-1.063-.046-1.79-.218-2.426-.464a4.923 4.923 0 0 1-1.77-1.153A4.932 4.932 0 0 1 .523 16.55c-.246-.633-.419-1.363-.465-2.426-.04-.914-.055-1.295-.058-3.095V8.941C.003 7.71.01 7.15.03 6.616l.007-.2.025-.54C.109 4.813.28 4.086.528 3.45A4.92 4.92 0 0 1 1.68 1.68 4.88 4.88 0 0 1 3.455.523C4.088.277 4.818.105 5.88.06 6.796.019 7.176.004 8.976 0Zm-.497 1.817H9.456c-2.164.002-2.508.015-3.485.058-.973.043-1.504.207-1.856.344-.434.16-.825.414-1.149.746a3.04 3.04 0 0 0-.75 1.15c-.137.35-.301.878-.344 1.855-.042.934-.056 1.291-.058 3.233v1.613c.002 1.456.01 2.02.032 2.606l.007.197.019.43c.043.974.207 1.505.344 1.857.16.433.414.824.746 1.148.32.332.715.586 1.149.746.352.137.88.301 1.856.344.935.042 1.292.056 3.234.058h1.614c1.941-.002 2.296-.016 3.233-.058.974-.043 1.505-.207 1.857-.344a3.318 3.318 0 0 0 1.899-1.898c.137-.352.3-.88.344-1.856.01-.235.019-.432.026-.628l.007-.195a66.2 66.2 0 0 0 .024-1.953v-.454l.001-.25V9.203l-.001-.454a66.432 66.432 0 0 0-.024-1.956l-.007-.196a83.373 83.373 0 0 0-.026-.628c-.043-.973-.207-1.504-.344-1.856a3.109 3.109 0 0 0-.747-1.149 3.076 3.076 0 0 0-1.148-.746c-.352-.137-.88-.3-1.857-.344-.973-.043-1.316-.056-3.484-.058Zm-.564 3.047a5.14 5.14 0 0 1 5.139 5.138 5.14 5.14 0 0 1-10.278 0 5.14 5.14 0 0 1 5.139-5.138Zm0 1.805a3.334 3.334 0 1 0 0 6.667 3.334 3.334 0 0 0 0-6.667Zm5.342-3.207a1.2 1.2 0 1 1 0 2.399 1.2 1.2 0 0 1 0-2.4Z"/></symbol><symbol id="symbol-journaliste" viewBox="0 0 23 23"><path d="M17.258.5v11.045H22.5v7.69a3.266 3.266 0 0 1-3.266 3.265H2.117C1.627 22.5.5 21.373.5 19.982V.5h16.758Zm-1.29 1.29H1.79v18.192c0 .551.354 1.04.565 1.229h14.281a3.25 3.25 0 0 1-.666-1.977V1.79Zm5.243 11.044h-3.953v6.4a1.98 1.98 0 0 0 1.976 1.977 1.98 1.98 0 0 0 1.977-1.977v-6.4Zm-6.689 5.219v1.289H3.236v-1.29h11.286Zm0-2.364v1.29H3.236v-1.29h11.286Zm0-2.363v1.29H3.236v-1.29h11.286Zm0-2.363v1.289H3.236v-1.29h11.286Zm-5.27-7.305v6.016H3.235V3.658H9.25Zm5.27 4.727v1.289h-3.953v-1.29h3.953Zm-6.56-3.438H4.525v3.438h3.437V4.947Zm6.56 1.074v1.29h-3.953V6.02h3.953Zm0-2.363v1.29h-3.953v-1.29h3.953Z"/></symbol><symbol id="symbol-jpg" viewBox="0 0 36 41"><g fill="none"><path d="M7.714 0a2.575 2.575 0 0 0-2.571 2.563v35.874A2.575 2.575 0 0 0 7.714 41H33.43A2.575 2.575 0 0 0 36 38.437V10.25L25.714 0h-18Z" fill="#E2E5E7"/><path d="M28.286 10.25H36L25.714 0v7.688a2.575 2.575 0 0 0 2.572 2.562Z" fill="#B0B7BD"/><path fill="#CAD1D8" d="m36 17.938-7.714-7.688H36z"/><path d="M30.857 33.313c0 .704-.578 1.28-1.286 1.28H1.286A1.287 1.287 0 0 1 0 33.314V20.5c0-.705.579-1.281 1.286-1.281H29.57c.708 0 1.286.576 1.286 1.281v12.813Z" fill="#50BEE8"/><path d="M8.837 24.276c0-.861 1.357-.861 1.357 0v4.046c0 1.61-.771 2.583-2.55 2.583-.873 0-1.602-.237-2.24-1.056-.525-.625.463-1.526.998-.871.432.533.894.656 1.346.636.574-.021 1.08-.279 1.09-1.292v-4.046h-.001Zm3.163 0c0-.338.268-.707.7-.707h2.375c1.337 0 2.54.891 2.54 2.6 0 1.62-1.203 2.522-2.54 2.522h-1.716v1.353c0 .451-.288.706-.659.706-.34 0-.7-.255-.7-.706v-5.768Zm1.359.583v2.552h1.716c.69 0 1.234-.606 1.234-1.241 0-.717-.545-1.311-1.234-1.311h-1.716Zm11.598 5.103c-.73.605-1.625.861-2.529.861-2.16 0-3.691-1.229-3.691-3.668 0-2.068 1.615-3.676 3.782-3.676.813 0 1.706.275 2.344.9.626.614-.278 1.527-.893.985-.381-.37-.916-.646-1.45-.646-1.244 0-2.446.993-2.446 2.437 0 1.517 1.007 2.44 2.354 2.44.626 0 1.161-.186 1.542-.462v-1.26h-1.542c-.915 0-.823-1.25 0-1.25h2.056c.38 0 .729.287.729.605v2.182c0 .184-.081.356-.256.552Z" fill="#FFF"/><path d="M29.571 34.594H5.143v1.281H29.57c.708 0 1.286-.577 1.286-1.281v-1.282c0 .705-.578 1.282-1.286 1.282Z" fill="#CAD1D8"/></g></symbol><symbol id="symbol-lettre-mail" viewBox="0 0 40 32"><path d="M34.69.56H5.32C2.88.56.9 2.54.9 4.98v22.03c0 2.44 1.98 4.42 4.42 4.42h29.37c2.44 0 4.42-1.98 4.42-4.42V4.98c0-2.44-1.98-4.42-4.42-4.42ZM5.32 2.06h29.37c1.49 0 2.7 1.12 2.88 2.56L20 16.92 2.43 4.62c.18-1.44 1.4-2.56 2.88-2.56h.01Zm29.37 27.87H5.32c-1.61 0-2.92-1.31-2.92-2.92V6.42l17.18 12.02c.13.09.28.14.43.14.15 0 .3-.04.43-.14L37.62 6.42v20.59c0 1.61-1.31 2.92-2.92 2.92h-.01Z" fill="#3377B3"/></symbol><symbol id="symbol-link" viewBox="0 0 16 16"><path d="M4.748 6.538a3.333 3.333 0 0 1 4.713 0 .667.667 0 1 1-.943.943 2 2 0 0 0-2.827 0l-3.772 3.772a2 2 0 1 0 2.829 2.827l1.885-1.885a.667.667 0 1 1 .943.943l-1.885 1.885A3.332 3.332 0 1 1 .976 10.31l3.772-3.772ZM10.309.976a3.334 3.334 0 0 1 4.715 4.714l-4.148 4.148a3.333 3.333 0 0 1-4.714 0 .667.667 0 1 1 .943-.943 2 2 0 0 0 2.828 0l4.148-4.148a2 2 0 1 0-2.829-2.828L8.99 4.181a.667.667 0 0 1-.943-.943L10.31.976Z"/></symbol><symbol id="symbol-linkedin" viewBox="0 0 18 18"><path d="M18 18v-6.593c0-3.24-.698-5.715-4.478-5.715-1.822 0-3.037.99-3.532 1.935h-.045V5.985H6.368V18h3.735v-5.963c0-1.574.292-3.082 2.227-3.082 1.913 0 1.935 1.777 1.935 3.172v5.85H18V18ZM.293 5.985h3.735V18H.293V5.985ZM2.16 0A2.16 2.16 0 0 0 0 2.16c0 1.192.968 2.183 2.16 2.183 1.193 0 2.16-.99 2.16-2.183A2.16 2.16 0 0 0 2.16 0Z"/></symbol><symbol id="symbol-localisation" viewBox="0 0 20 24"><path fill-rule="evenodd" clip-rule="evenodd" d="M10 2a8 8 0 0 0-8 8c0 3.098 2.016 6.104 4.226 8.437A29.418 29.418 0 0 0 10 21.773a29.412 29.412 0 0 0 3.774-3.335C15.984 16.103 18 13.097 18 10a8 8 0 0 0-8-8Zm0 21-.555.832-.003-.002-.007-.005-.023-.015-.082-.057c-.071-.05-.174-.12-.302-.214a31.428 31.428 0 0 1-4.254-3.727C2.484 17.397 0 13.903 0 10a10 10 0 0 1 20 0c0 3.902-2.484 7.396-4.774 9.813a31.433 31.433 0 0 1-4.254 3.726 18.887 18.887 0 0 1-.384.27l-.023.016-.007.005-.002.001s-.001.001-.556-.831Zm0 0 .555.832a1.001 1.001 0 0 1-1.11 0L10 23Z"/><path fill-rule="evenodd" clip-rule="evenodd" d="M6 10a4 4 0 1 1 8 0 4 4 0 0 1-8 0Zm4-2a2 2 0 1 0 0 4 2 2 0 0 0 0-4Z"/></symbol><symbol id="symbol-malette" viewBox="0 0 52 44"><path d="M47.41 6.6h-9.87l-2.08-5.22a.753.753 0 0 0-.7-.47H17.23c-.31 0-.58.19-.7.47L14.45 6.6H4.58c-2 0-3.64 1.63-3.64 3.64v29.22c0 2 1.63 3.64 3.64 3.64H47.4c2 0 3.64-1.63 3.64-3.64V10.24c0-2-1.63-3.64-3.64-3.64h.01ZM17.74 2.41h16.52l1.67 4.19H16.07l1.67-4.19ZM4.59 8.1h42.82c1.18 0 2.14.96 2.14 2.14v6.12c-1.28 1.28-9.1 8.66-19.3 9.02v-2.3c0-.41-.34-.75-.75-.75h-7c-.41 0-.75.34-.75.75v2.3c-10.2-.36-18.02-7.74-19.3-9.02v-6.12c0-1.18.96-2.14 2.14-2.14Zm18.66 15.73h5.5v4.75c0 1.52-1.23 2.75-2.75 2.75s-2.75-1.23-2.75-2.75v-4.75ZM47.41 41.6H4.59c-1.18 0-2.14-.96-2.14-2.14V18.43c2.82 2.56 10.04 8.15 19.3 8.45v1.7A4.26 4.26 0 0 0 26 32.83a4.26 4.26 0 0 0 4.25-4.25v-1.7c9.26-.3 16.47-5.88 19.3-8.45v21.03c0 1.18-.96 2.14-2.14 2.14Z" fill="#3377B3"/></symbol><symbol id="symbol-mobilite" viewBox="0 0 40 40"><path d="M20 0a19.8 19.8 0 0 1 11.666 3.754 3.263 3.263 0 0 1 1.928-.629 3.285 3.285 0 0 1 3.281 3.281c0 .72-.234 1.387-.629 1.929A19.804 19.804 0 0 1 40 20a19.87 19.87 0 0 1-5.858 14.142A19.87 19.87 0 0 1 20 40a19.806 19.806 0 0 1-11.665-3.754 3.263 3.263 0 0 1-1.929.629 3.285 3.285 0 0 1-3.281-3.281c0-.72.234-1.387.629-1.928A19.809 19.809 0 0 1 0 20c0-3.99 1.172-7.842 3.388-11.141a.781.781 0 1 1 1.297.871 18.375 18.375 0 0 0-1.669 3.082h7.703a3.287 3.287 0 0 1 2.95-2.49c.545-2.858 1.327-5.283 2.275-7.044.31-.576.625-1.055.938-1.453a18.286 18.286 0 0 0-7.501 3.1.781.781 0 0 1-.901-1.276A19.872 19.872 0 0 1 20 0Zm2.855 27.188h-8.012c.311 2.278.772 4.366 1.368 6.155 1.064 3.19 2.48 5.094 3.789 5.094 1.549 0 3.598-2.79 4.787-9a3.294 3.294 0 0 1-1.932-2.25Zm-9.587 0H3.012a18.376 18.376 0 0 0 1.939 3.466 3.26 3.26 0 0 1 1.455-.341 3.285 3.285 0 0 1 3.282 3.28c0 .523-.124 1.017-.342 1.456a18.206 18.206 0 0 0 7.526 3.126c-.803-1.028-1.524-2.48-2.143-4.338-.644-1.932-1.137-4.191-1.461-6.65Zm23.71 0h-7.75a3.288 3.288 0 0 1-2.896 2.486c-.546 2.865-1.33 5.296-2.282 7.058-.308.57-.62 1.045-.93 1.44 6.254-1.07 11.443-5.3 13.859-10.984ZM6.407 31.875a1.72 1.72 0 0 0-1.718 1.719 1.72 1.72 0 0 0 1.718 1.718 1.72 1.72 0 0 0 1.719-1.718 1.72 1.72 0 0 0-1.719-1.719Zm19.635-7.188a1.72 1.72 0 0 0-1.718 1.72 1.72 1.72 0 0 0 1.718 1.718 1.72 1.72 0 0 0 1.72-1.719 1.72 1.72 0 0 0-1.72-1.718ZM37.57 14.376H26.914a57.982 57.982 0 0 1 .179 8.924 3.293 3.293 0 0 1 2.135 2.326h8.33c.57-1.774.88-3.664.88-5.625 0-1.939-.295-3.828-.87-5.625Zm-12.225 0h-8.252a3.29 3.29 0 0 1-2.627 2.451 56.77 56.77 0 0 0-.09 3.174c0 1.938.096 3.829.281 5.625h8.199a3.29 3.29 0 0 1 2.68-2.46c.059-1.042.09-2.102.09-3.165a55.07 55.07 0 0 0-.281-5.625Zm-14.625 0H2.436A18.445 18.445 0 0 0 1.563 20c0 1.938.295 3.828.869 5.625h10.654A56.724 56.724 0 0 1 12.812 20c0-1.102.033-2.202.094-3.281a3.293 3.293 0 0 1-2.187-2.344Zm3.187-2.5a1.72 1.72 0 0 0-1.719 1.719 1.72 1.72 0 0 0 1.719 1.719 1.72 1.72 0 0 0 1.719-1.72 1.72 1.72 0 0 0-1.72-1.718Zm9.222-10.05c.803 1.028 1.524 2.48 2.143 4.338.644 1.932 1.137 4.191 1.461 6.65h10.256a18.366 18.366 0 0 0-1.939-3.467 3.262 3.262 0 0 1-1.455.341 3.285 3.285 0 0 1-3.281-3.28c0-.523.123-1.017.341-1.456a18.202 18.202 0 0 0-7.526-3.126ZM20 1.563c-1.552 0-3.603 2.796-4.79 9.02a3.294 3.294 0 0 1 1.883 2.23h8.064c-.311-2.278-.772-4.367-1.368-6.156-1.064-3.19-2.48-5.095-3.789-5.095Zm13.594 3.125a1.72 1.72 0 0 0-1.719 1.718 1.72 1.72 0 0 0 1.72 1.719 1.72 1.72 0 0 0 1.718-1.719 1.72 1.72 0 0 0-1.719-1.718ZM6.254 5.785c.207 0 .408.084.554.229a.786.786 0 0 1 0 1.105.786.786 0 0 1-1.106 0 .787.787 0 0 1-.229-.553.787.787 0 0 1 .781-.781Z" fill="#3377B3"/></symbol><symbol id="symbol-nucleaire" viewBox="0 0 40 43"><path d="M20.942 0c2.506 0 4.792 2.339 6.437 6.585.284.735.545 1.514.782 2.33 1.78-.44 3.45-.686 4.947-.718a3.393 3.393 0 0 1 3.168-2.205c1.869 0 3.39 1.529 3.39 3.408 0 .46-.092.898-.257 1.299a.855.855 0 0 1 .034.057c1.25 2.178.38 5.34-2.45 8.898-.49.615-1.03 1.232-1.614 1.846.584.614 1.123 1.23 1.612 1.846 2.831 3.557 3.7 6.718 2.449 8.902-.616 1.074-1.682 1.823-3.17 2.224-.833.225-1.785.334-2.831.334-1.574 0-3.361-.248-5.282-.722a27.707 27.707 0 0 1-.824 2.445 3.41 3.41 0 0 1 1.181 2.584c0 1.88-1.52 3.41-3.387 3.41a3.35 3.35 0 0 1-1.596-.402c-.828.583-1.697.879-2.59.879-2.505 0-4.791-2.34-6.437-6.587a28.147 28.147 0 0 1-.78-2.328c-1.92.473-3.705.721-5.277.721-1.046 0-1.998-.11-2.832-.334-1.487-.401-2.553-1.15-3.17-2.224-1.252-2.183-.384-5.345 2.447-8.902a27.82 27.82 0 0 1 1.614-1.847 26.32 26.32 0 0 1-2.139-2.534c-.31.094-.64.146-.98.146C1.519 19.11 0 17.58 0 15.7c0-1.341.774-2.503 1.895-3.06a4.286 4.286 0 0 1 .551-1.89c.616-1.075 1.682-1.823 3.17-2.224 2.088-.563 4.914-.401 8.11.387.185-.64.385-1.258.6-1.848a.834.834 0 0 1 1.07-.5c.434.16.656.641.498 1.077a27.357 27.357 0 0 0-.557 1.712c1.797.54 3.686 1.26 5.607 2.144 1.913-.88 3.802-1.6 5.605-2.141a26.55 26.55 0 0 0-.726-2.162C24.465 3.69 22.686 1.68 20.942 1.68c-.51 0-1.028.172-1.539.51a.832.832 0 0 1-1.157-.238.843.843 0 0 1 .237-1.163C19.272.265 20.1 0 20.942 0Zm0 31.501a43.223 43.223 0 0 1-5.607 2.143c.22.757.462 1.479.726 2.16 1.358 3.506 3.137 5.516 4.88 5.516.44 0 .884-.128 1.326-.38a3.406 3.406 0 0 1-.529-1.827c0-1.88 1.52-3.408 3.39-3.408.241 0 .477.026.704.074.259-.67.497-1.384.715-2.136a43.244 43.244 0 0 1-5.605-2.142Zm4.186 5.883c-.948 0-1.72.776-1.72 1.729 0 .955.772 1.731 1.72 1.731.946 0 1.716-.776 1.716-1.731 0-.953-.77-1.729-1.716-1.729ZM7.69 22.682a26.91 26.91 0 0 0-1.495 1.713c-2.336 2.937-3.176 5.493-2.303 7.013.386.675 1.111 1.16 2.155 1.441.7.19 1.508.28 2.403.28 1.423 0 3.066-.23 4.845-.67a43.769 43.769 0 0 1-.96-5.961 43.576 43.576 0 0 1-4.645-3.816Zm26.503.002a43.263 43.263 0 0 1-4.65 3.82 44.484 44.484 0 0 1-.961 5.953c2.9.717 5.441.881 7.255.392 1.043-.281 1.768-.766 2.155-1.44.872-1.52.031-4.077-2.306-7.014a26.357 26.357 0 0 0-1.493-1.71ZM14.15 27.74c.186 1.497.44 2.93.757 4.275a40.665 40.665 0 0 0 4.055-1.477 53.614 53.614 0 0 1-4.812-2.798Zm13.578.005a53.804 53.804 0 0 1-4.806 2.793 40.695 40.695 0 0 0 4.051 1.476c.315-1.341.568-2.775.755-4.27ZM20.94 13.353a51.502 51.502 0 0 0-3.581 1.898 51.519 51.519 0 0 0-3.425 2.173 52.318 52.318 0 0 0-.002 8.15 51.392 51.392 0 0 0 7.01 4.07 51.552 51.552 0 0 0 7.007-4.067 52.31 52.31 0 0 0 .004-8.153 51.524 51.524 0 0 0-7.013-4.071Zm-.288 3.068a.833.833 0 0 1 1.12-.378c.412.206.58.71.375 1.126l-1.727 3.49h2.393a.845.845 0 0 1 .748 1.214l-2.324 4.704a.834.834 0 0 1-1.12.378.842.842 0 0 1-.376-1.126l1.725-3.49h-2.392c-.61 0-1.02-.666-.75-1.214Zm9.057 2.279a54.359 54.359 0 0 1-.002 5.602A39.991 39.991 0 0 0 33.01 21.5a39.98 39.98 0 0 0-3.302-2.8Zm-17.531-.001a39.944 39.944 0 0 0-3.303 2.8 40.26 40.26 0 0 0 3.302 2.799 54.434 54.434 0 0 1 0-5.599Zm20.746-8.816c-1.317.047-2.78.27-4.337.652.44 1.852.763 3.86.962 5.964a43.253 43.253 0 0 1 4.647 3.817 26.49 26.49 0 0 0 1.493-1.711c2.057-2.584 2.953-4.874 2.545-6.423a3.355 3.355 0 0 1-1.957.63c-1.705 0-3.12-1.276-3.353-2.93ZM13.3 10.54c-2.899-.716-5.437-.88-7.25-.392-1.044.282-1.77.766-2.156 1.44a2.476 2.476 0 0 0-.27.712 3.404 3.404 0 0 1 3.153 3.4 3.41 3.41 0 0 1-.975 2.39 24.9 24.9 0 0 0 1.889 2.225 43.25 43.25 0 0 1 4.647-3.817c.199-2.1.523-4.107.962-5.958Zm-9.912 3.43c-.947 0-1.717.776-1.717 1.73s.77 1.73 1.717 1.73c.948 0 1.719-.776 1.719-1.73s-.771-1.73-1.72-1.73Zm23.588-2.993c-1.31.395-2.672.891-4.06 1.48a53.562 53.562 0 0 1 4.819 2.802 40.499 40.499 0 0 0-.759-4.282Zm-12.066.007a40.717 40.717 0 0 0-.757 4.273 53.745 53.745 0 0 1 4.812-2.795 40.643 40.643 0 0 0-4.055-1.478Zm21.367-3.312c-.947 0-1.717.775-1.717 1.729 0 .954.77 1.73 1.717 1.73.948 0 1.719-.776 1.719-1.73s-.771-1.73-1.72-1.73Zm-20.348-4.03a.833.833 0 0 1 1.12-.375.842.842 0 0 1-.376 1.593.84.84 0 0 1-.746-1.213Z" fill="#3377B3"/></symbol><symbol id="symbol-panier" viewBox="0 0 22 22"><path d="M1.429 2.19a.92.92 0 0 1 .517.752l.123 1.7.002.018.608 8.37a2.78 2.78 0 0 0 2.777 2.553h12.572a2.774 2.774 0 0 0 2.738-2.255l1.188-6.416a2.722 2.722 0 0 0-.587-2.241 2.788 2.788 0 0 0-2.15-1.004H3.836l-.063-.858A2.761 2.761 0 0 0 2.237.544l-.916-.45A.917.917 0 1 0 .513 1.74l.916.45ZM19.216 5.5a.96.96 0 0 1 .742.343.884.884 0 0 1 .194.735l-1.189 6.417a.94.94 0 0 1-.935.755H5.456a.94.94 0 0 1-.948-.852L3.97 5.5h15.246Zm.034 13.75a2.75 2.75 0 1 0-5.5 0 2.75 2.75 0 0 0 5.5 0Zm-3.666 0a.917.917 0 1 1 1.833 0 .917.917 0 0 1-1.833 0ZM6.417 22a2.75 2.75 0 1 0 0-5.5 2.75 2.75 0 0 0 0 5.5Zm0-3.667a.917.917 0 1 1 0 1.834.917.917 0 0 1 0-1.834Z"/></symbol><symbol id="symbol-pdf" viewBox="0 0 36 41"><g fill="none"><path d="M7.714 0a2.575 2.575 0 0 0-2.571 2.563v35.874A2.575 2.575 0 0 0 7.714 41H33.43A2.575 2.575 0 0 0 36 38.437V10.25L25.714 0h-18Z" fill="#E2E5E7"/><path d="M28.286 10.25H36L25.714 0v7.688a2.575 2.575 0 0 0 2.572 2.562Z" fill="#B0B7BD"/><path fill="#CAD1D8" d="m36 17.938-7.714-7.688H36z"/><path d="M30.857 33.313c0 .704-.578 1.28-1.286 1.28H1.286A1.287 1.287 0 0 1 0 33.314V20.5c0-.705.579-1.281 1.286-1.281H29.57c.708 0 1.286.576 1.286 1.281v12.813Z" fill="#F15642"/><path d="M5.604 24.276c0-.338.268-.707.699-.707h2.374c1.337 0 2.54.891 2.54 2.6 0 1.62-1.203 2.522-2.54 2.522H6.961v1.353c0 .451-.288.706-.658.706a.692.692 0 0 1-.699-.706v-5.768Zm1.357.583v2.552h1.716c.69 0 1.235-.606 1.235-1.241 0-.717-.546-1.311-1.235-1.311H6.961Zm6.27 5.891c-.34 0-.71-.184-.71-.634v-5.82c0-.367.37-.635.71-.635h2.354c4.698 0 4.596 7.089.093 7.089h-2.447Zm.648-5.839v4.59h1.706c2.776 0 2.9-4.59 0-4.59H13.88Zm7.968.082v1.629h2.621c.37 0 .741.369.741.726 0 .339-.37.615-.74.615h-2.622v2.152c0 .358-.256.634-.616.634-.453 0-.729-.276-.729-.634v-5.82c0-.368.278-.635.729-.635h3.609c.453 0 .72.267.72.635a.71.71 0 0 1-.72.697h-2.993v.001Z" fill="#FFF"/><path d="M29.571 34.594H5.143v1.281H29.57c.708 0 1.286-.577 1.286-1.281v-1.282c0 .705-.578 1.282-1.286 1.282Z" fill="#CAD1D8"/></g></symbol><symbol id="symbol-phone" viewBox="0 0 16 16"><path d="M3.453.118a1.659 1.659 0 0 1 2.055.718L6.96 3.353a1.67 1.67 0 0 1-.611 2.28c-.224.128-.505.354-.575.698-.064.314-.002.59.19.847.71.946 1.911 2.147 2.857 2.857.256.192.533.254.847.19.3-.061.511-.284.646-.489l.053-.086a1.657 1.657 0 0 1 1.013-.777c.431-.115.88-.056 1.266.166l2.517 1.453.13.083c.584.412.839 1.14.638 1.826l-.061.177-.29.726c-.338.829-.623 1.433-.908 1.719-.487.486-1.281.977-2.507.977a5.74 5.74 0 0 1-1.488-.212C6.589 14.693 1.308 9.411.212 5.322c-.564-2.105.105-3.334.765-3.995C1.315.99 2.097.653 3.17.23l.283-.111Zm1.189 1.218a.659.659 0 0 0-.823-.288l-.862.346c-.772.32-1.142.51-1.273.64-.638.639-.895 1.577-.506 3.03 1.003 3.743 6.015 8.755 9.759 9.758.451.121.86.178 1.229.178.796 0 1.37-.256 1.8-.684.14-.141.35-.559.716-1.458l.27-.676c.115-.293.019-.611-.197-.764l-.091-.06-2.517-1.453a.658.658 0 0 0-.507-.066.657.657 0 0 0-.406.31c-.303.525-.737.928-1.365 1.056a2.003 2.003 0 0 1-1.647-.37C7.2 10.068 5.932 8.8 5.165 7.778a2.003 2.003 0 0 1-.37-1.647c.128-.628.53-1.062 1.055-1.365a.67.67 0 0 0 .245-.913L4.642 1.336Z" fill="#00549F"/></symbol><symbol id="symbol-pinterest" viewBox="0 0 16 20"><path d="M8.268 0C2.869 0 0 3.513 0 7.343c0 1.776.977 3.992 2.542 4.695.446.204.387-.045.771-1.537a.358.358 0 0 0-.083-.348C.993 7.526 2.793 2.124 7.949 2.124c7.461 0 6.067 10.485 1.298 10.485-1.23 0-2.145-.98-1.855-2.192.35-1.444 1.038-2.997 1.038-4.038 0-2.623-3.848-2.234-3.848 1.242 0 1.074.374 1.8.374 1.8l-1.468 6.028c-.389 1.607.053 4.208.091 4.432.024.123.16.163.237.06.122-.162 1.619-2.33 2.038-3.897.152-.571.779-2.888.779-2.888.412.757 1.602 1.39 2.87 1.39 3.771 0 6.497-3.367 6.497-7.544C15.987 2.997 12.612 0 8.268 0Z"/></symbol><symbol id="symbol-planete-ecologie" viewBox="0 0 42 38"><path d="M39.83 9.01c-2.91-3.63-8.9-4.95-12.67-3.9-.23.07-.42.24-.5.47-.08.23-.05.48.09.68 0 .01.91 1.31 1.21 3.21l.52 3.19c.34 2.21.68 3.47 1.66 4.68 1.48 1.81 3.81 2.69 5.78 2.69.3 0 .58-.03.86-.07-.51 9.18-8.11 16.49-17.41 16.49S1.91 28.62 1.91 18.99c0-2.55.56-4.97 1.55-7.15l.63 2.58c.96 3.01 2.21 6 5.94 6.64.04 0 .08.01.13.01l4.61-.05c-.47 1.67-.39 2.98.24 3.9.2.29.7.7.97.91.17.13.69.85.79 1.02.19.46.19.48.09 1.33l-.17 1.39c-.06.56-.1 1.06-.11 1.61-.05 2.14.17 3.27.77 3.88.05.05.33.28.33.28.13.11.3.17.47.17.06 0 .12 0 .18-.02.23-.05.41-.21.51-.43 0-.02.8-1.8 1.5-2.75l.39-.51c.41-.54 1.41-1.4 2.19-1.99.26-.2.55-.37.83-.53.6-.34 1.21-.7 1.63-1.41.88-1.48 1.17-3.75.62-4.77-.2-.36-1.35-1.07-1.93-1.24-.11-.03-1.02-.26-1.02-.26a.883.883 0 0 0-.28-.02l-1.17.16c-.62-.2-1.09-.47-1.69-.94l-.46-.37c-.66-.51-1.17-.74-1.94-.87-.45-.26-1.3-.51-2.97-.95-1.18-.31-3.34-.89-3.81-1.24a.405.405 0 0 0-.05-.09l-.36-.58c.01-.4.17-1.11.22-1.25.37-.74 1.18-1.2 2-1.16.23.19.7.88.93 1.22.33.5.54.79.74.97.18.16.44.23.68.17.24-.06.43-.23.52-.46l.47-1.24c.16-.49.55-1.07 1.04-1.29 0 0 .83-.38 1.07-.67.15-.17.23-.31.32-1.45 0-.48.04-.74.21-1.1.19-.4.24-.8.28-1.12.05-.38.08-.49.14-.54l2.11-.16c.07 0 .15-.02.22-.05.35-.14.84-.33.99-.82.19-.61-.12-1.4-.92-2.36-.79-.95-2.68-2.69-4.2-2.5-.31.04-.56.26-.63.57l-.19.78c-.01.06-.02.12-.02.17 0 .58-.48 1.49-1.09 2.07-.4.38-.73.52-.91.5-.44-.02-1.61-.79-2.39-1.48-.7-.68-1.48-.98-1.84-1.09-.01-.02-.03-.07-.04-.1a17.35 17.35 0 0 1 9.36-2.75c2.47 0 4.86.51 7.1 1.51.38.17.82 0 .99-.38.17-.38 0-.82-.38-.99A18.894 18.894 0 0 0 19.39.06c-3.92 0-7.56 1.2-10.59 3.24l-.09.06C6.47 4.89 4.6 6.9 3.19 9.22c-.07.07-.12.15-.15.25a18.804 18.804 0 0 0-2.61 9.55c0 10.45 8.51 18.96 18.96 18.96 10.45 0 18.68-8.25 18.94-18.47 1.58-.78 2.65-2.06 3.08-3.74.57-2.2-.04-4.84-1.56-6.73l-.02-.03ZM18.95 21.96c.79.63 1.47.99 2.35 1.25.1.03.21.04.31.02l1.19-.16c.24.06.72.18.8.21.32.1.85.45 1.09.62.16.52.03 2.08-.63 3.19-.22.37-.61.6-1.09.88-.3.17-.64.37-.98.63-.8.6-1.92 1.55-2.48 2.27l-.4.52c-.35.47-.7 1.09-1 1.65-.05-.41-.08-1-.06-1.83.01-.53.05-.99.1-1.48l.17-1.38c.13-1.14.09-1.37-.2-2.08-.11-.28-.83-1.3-1.25-1.63-.28-.21-.59-.49-.65-.57-.4-.59-.37-1.63.08-3.02l.1-.05h.71c.58.09.88.21 1.36.59l.46.37h.02ZM8.75 5.16c.18.32.45.6.84.65 0 0 .68.19 1.27.76.35.31 2.14 1.83 3.35 1.88.65.03 1.35-.29 2-.92.75-.72 1.5-1.93 1.55-3.05v-.04c.36.13.82.41 1.35.85.88.73 1.43 1.47 1.61 1.82l-2.07.16c-.08 0-.15.02-.23.05-.97.4-1.07 1.23-1.14 1.79-.03.25-.06.48-.15.67-.3.65-.36 1.16-.35 1.69-.02.2-.04.41-.06.56-.15.09-.36.2-.44.24-.94.41-1.56 1.34-1.83 2.07-.64-.93-1.11-1.49-1.71-1.55a3.6 3.6 0 0 0-3.59 1.98c-.12.25-.45 1.53-.37 2.23.01.11.05.22.11.31l.41.66c.23.63 1.11 1.03 3.01 1.58l-2.13.02c-2.85-.52-3.81-2.85-4.68-5.55L4.49 9.86c1.12-1.81 2.56-3.4 4.24-4.7h.02Zm31.18 10.21a4.076 4.076 0 0 1-1.67 2.41c-.32-3.74-2.13-6.94-5.42-9.53-.33-.26-.8-.2-1.05.13-.26.33-.2.8.13 1.05 3.14 2.47 4.73 5.43 4.89 9.01-1.51.31-4.02-.23-5.49-2.04-.7-.85-1-1.74-1.34-3.96l-.52-3.2c-.19-1.21-.59-2.2-.92-2.88 3.26-.47 7.86.76 10.14 3.59 1.21 1.51 1.72 3.69 1.28 5.42h-.03Z" fill="#3377B3"/></symbol><symbol id="symbol-png" viewBox="0 0 36 41"><g fill="none"><path d="M7.714 0a2.575 2.575 0 0 0-2.571 2.563v35.874A2.575 2.575 0 0 0 7.714 41H33.43A2.575 2.575 0 0 0 36 38.437V10.25L25.714 0h-18Z" fill="#E2E5E7"/><path d="M28.286 10.25H36L25.714 0v7.688a2.575 2.575 0 0 0 2.572 2.562Z" fill="#B0B7BD"/><path fill="#CAD1D8" d="m36 17.938-7.714-7.688H36z"/><path d="M30.857 33.313c0 .704-.578 1.28-1.286 1.28H1.286A1.287 1.287 0 0 1 0 33.314V20.5c0-.705.579-1.281 1.286-1.281H29.57c.708 0 1.286.576 1.286 1.281v12.813Z" fill="#A066AA"/><path d="M4.887 24.276c0-.338.266-.709.698-.709h2.376c1.336 0 2.54.892 2.54 2.603 0 1.619-1.204 2.52-2.54 2.52H6.242v1.353c0 .452-.285.707-.657.707a.692.692 0 0 1-.698-.707v-5.767Zm1.355.583v2.55H7.96c.688 0 1.233-.604 1.233-1.24 0-.717-.545-1.31-1.233-1.31H6.242Zm5.568-.481c0-.37.083-.727.618-.727.369 0 .452.092.729.357l3.402 4.242v-3.974c0-.338.297-.709.648-.709.37 0 .729.37.729.709v5.767c0 .452-.278.624-.545.707-.36 0-.535-.082-.832-.357l-3.402-4.304v3.955c0 .452-.278.707-.648.707s-.7-.255-.7-.707v-5.666h.002Zm13.86 5.584c-.731.604-1.626.861-2.53.861-2.16 0-3.691-1.23-3.691-3.668 0-2.07 1.615-3.677 3.783-3.677.812 0 1.706.276 2.343.902.628.613-.277 1.526-.893.984-.38-.37-.916-.646-1.45-.646-1.244 0-2.446.993-2.446 2.437 0 1.517 1.007 2.438 2.354 2.438.626 0 1.161-.184 1.542-.461v-1.258H23.14c-.915 0-.823-1.252 0-1.252h2.056c.38 0 .73.288.73.606v2.182c0 .183-.082.356-.257.552Z" fill="#FFF"/><path d="M29.571 34.594H5.143v1.281H29.57c.708 0 1.286-.577 1.286-1.281v-1.282c0 .705-.578 1.282-1.286 1.282Z" fill="#CAD1D8"/></g></symbol><symbol id="symbol-poignee-main" viewBox="0 0 48 42"><path d="M47.35 18.23c.34-.23.44-.7.21-1.04a.753.753 0 0 0-1.04-.21l-1.87 1.25L36.9 4.29l3.62-2.17a.749.749 0 0 0 .064-1.248.749.749 0 0 0-.834-.042L35.6 3.32 24 6.25 12.4 3.32 8.25.83a.74.74 0 0 0-1.03.26c-.21.35-.1.82.26 1.03l3.62 2.17-7.75 13.94-1.87-1.25a.744.744 0 0 0-1.04.21c-.23.34-.14.81.21 1.04l2.5 1.67 3.4 3.02-1.71 1.71c-.66.66-1.02 1.54-1.02 2.47 0 .93.36 1.81 1.02 2.47.61.61 1.39.93 2.19.99-.55 1.28-.31 2.82.73 3.86a3.49 3.49 0 0 0 2.47 1.02c.14 0 .29-.02.43-.04-.02.14-.04.28-.04.43 0 .93.36 1.81 1.02 2.47.66.66 1.54 1.02 2.47 1.02.93 0 1.74-.34 2.39-.96.12.69.44 1.35.97 1.87a3.49 3.49 0 0 0 2.47 1.02c.89 0 1.79-.34 2.47-1.02l1.3-1.3c.09-.09.17-.2.25-.3l1.6 1.6c.66.66 1.54 1.03 2.47 1.03.93 0 1.81-.36 2.47-1.03.52-.52.84-1.17.97-1.87.67.63 1.53.95 2.39.95.86 0 1.79-.34 2.47-1.02a3.47 3.47 0 0 0 .98-2.9c.14.02.29.04.43.04.89 0 1.79-.34 2.47-1.02a3.507 3.507 0 0 0 .74-3.85h.04a3.53 3.53 0 0 0 2.58-1.54c.93-1.37.72-3.26-.51-4.49l-1.64-1.64 3.4-3.02 2.5-1.67.03.03ZM5.33 27.1c0-.53.21-1.04.58-1.41l2.28-2.28c.38-.38.88-.58 1.41-.58.53 0 1.04.21 1.41.58.38.38.58.88.58 1.41 0 .53-.21 1.04-.58 1.41l-2.28 2.28a1.992 1.992 0 0 1-3.4-1.41Zm3.5 6.27c-.78-.78-.78-2.05 0-2.83l.97-.97 2.28-2.28c.39-.39.9-.58 1.41-.58a1.984 1.984 0 0 1 1.99 1.99c0 .53-.21 1.04-.58 1.41l-3.25 3.25c-.78.78-2.05.78-2.83 0l.01.01Zm3.89 3.88c-.38-.38-.58-.88-.58-1.41 0-.53.21-1.04.58-1.41l3.25-3.25c.39-.39.9-.58 1.41-.58a1.992 1.992 0 0 1 1.41 3.4l-1.3 1.3-1.94 1.94c-.76.75-2.07.75-2.83 0v.01Zm8.65 1.94c-.78.78-2.05.78-2.83 0-.78-.78-.78-2.04 0-2.82l1.31-1.31c.39-.39.9-.58 1.41-.58a1.984 1.984 0 0 1 1.99 1.99c0 .53-.21 1.04-.58 1.41l-1.3 1.3v.01Zm20.99-11a1.992 1.992 0 0 1-3.08.31l-4.05-4.05a.754.754 0 0 0-1.06 0c-.29.29-.29.77 0 1.06l4.05 4.05.97.97c.78.78.78 2.05 0 2.83-.78.78-2.05.78-2.82 0l-5.02-5.02a.754.754 0 0 0-1.06 0c-.29.29-.29.77 0 1.06l5.02 5.02c.78.78.78 2.04 0 2.82-.78.78-2.05.78-2.83 0l-5.02-5.02a.754.754 0 0 0-1.06 0c-.29.29-.29.77 0 1.06l3.08 3.08c.38.38.58.88.58 1.41a1.998 1.998 0 0 1-1.99 2c-.53 0-1.03-.21-1.41-.59l-1.97-1.97a3.472 3.472 0 0 0-2.276-4.037 3.47 3.47 0 0 0-1.564-.153 3.47 3.47 0 0 0-.98-2.9 3.47 3.47 0 0 0-2.9-.98c.02-.14.04-.28.04-.43a3.472 3.472 0 0 0-2.356-3.297 3.47 3.47 0 0 0-1.564-.153c.02-.14.04-.28.04-.43 0-.93-.36-1.81-1.02-2.47-1.15-1.15-3.04-1.3-4.39-.44L4.6 19.15l7.92-14.26 9.09 2.29c-.38.25-.75.53-1.07.86l-2.04 2.12a4.13 4.13 0 0 0-1.16 2.88v7.12c0 1.35 1.1 2.45 2.45 2.45 3.22 0 5.85-2.62 5.85-5.85v-1.4c.78-.79 1.82-1.24 2.94-1.27 1.21-.03 2.35.41 3.21 1.27l8.07 8.07 2.2 2.2c.71.71.85 1.82.33 2.58l-.03-.02Zm-1.97-6.35-7.57-7.57a5.785 5.785 0 0 0-4.13-1.71h-.19c-1.63.05-3.12.75-4.22 1.99-.12.14-.18.31-.18.49v1.7c0 2.4-1.95 4.35-4.35 4.35-.52 0-.95-.43-.95-.95v-7.12c0-.69.26-1.34.74-1.84l2.04-2.12c.56-.58 1.28-1 2.07-1.2l11.86-2.99 7.92 14.26-3.06 2.71h.02Z" fill="#3377B3"/></symbol><symbol id="symbol-rouage" viewBox="0 0 48 48"><path d="m45.37 9.56-.62-.09c-.12-.34-.26-.67-.41-.99.13-.17.25-.33.37-.5.69-.93.59-2.25-.23-3.06l-1.4-1.4a2.37 2.37 0 0 0-3.07-.23c-.16.12-.33.25-.5.37-.32-.15-.66-.29-.99-.41l-.09-.61c-.17-1.14-1.17-2-2.33-2h-1.98c-1.16 0-2.16.86-2.33 2.01l-.09.61c-.34.12-.67.26-.99.41-.17-.13-.33-.25-.5-.37-.93-.69-2.25-.59-3.06.23l-1.4 1.4A2.37 2.37 0 0 0 25.52 8c.12.16.25.33.37.5-.15.32-.29.65-.41.99l-.61.09a2.374 2.374 0 0 0-2.01 2.33v1.98c0 1.16.86 2.16 2 2.33l.62.09c.12.34.26.67.41.99-.12.17-.25.33-.37.5-.15.2-.26.42-.34.65-.28-.56-.75-1.03-1.36-1.29l-2.51-1.04c-1.2-.5-2.61-.03-3.28 1.08-.21.34-.41.69-.62 1.04-.71-.06-1.42-.06-2.13 0-.21-.35-.41-.7-.62-1.04a2.641 2.641 0 0 0-2.35-1.28c-.32 0-.63.08-.93.2l-2.51 1.04c-1.2.5-1.87 1.82-1.56 3.08.1.39.2.78.3 1.18-.54.46-1.04.96-1.51 1.51-.4-.1-.79-.21-1.18-.3-1.26-.31-2.58.35-3.08 1.56L.8 26.7c-.5 1.2-.03 2.61 1.08 3.28.34.21.69.41 1.04.62-.06.71-.06 1.42 0 2.13-.35.21-.7.41-1.04.62A2.663 2.663 0 0 0 .8 36.63l1.04 2.51c.5 1.2 1.83 1.88 3.08 1.56.39-.1.78-.2 1.18-.3.46.54.97 1.04 1.51 1.51-.1.4-.2.79-.3 1.18-.32 1.26.35 2.58 1.56 3.08l2.51 1.04a2.648 2.648 0 0 0 3.28-1.08c.21-.34.41-.69.62-1.05.71.06 1.42.06 2.13 0 .2.35.41.7.62 1.04a2.674 2.674 0 0 0 3.28 1.08l2.51-1.04c1.2-.5 1.87-1.82 1.56-3.08-.1-.39-.2-.78-.3-1.18.54-.46 1.05-.97 1.51-1.51l1.18.3c1.26.32 2.58-.35 3.08-1.56l1.04-2.51c.5-1.2.03-2.61-1.08-3.28-.34-.21-.69-.41-1.05-.62.06-.71.06-1.42 0-2.13.35-.21.7-.41 1.04-.62a2.663 2.663 0 0 0 1.08-3.28l-1.04-2.51a2.6 2.6 0 0 0-1.29-1.36c.23-.08.45-.19.66-.34.17-.12.33-.25.5-.37.32.15.66.29.99.41l.09.62c.17 1.14 1.17 2 2.33 2h1.98c1.16 0 2.16-.86 2.33-2l.09-.62c.34-.12.67-.26.99-.41.17.13.33.25.5.37.93.69 2.25.59 3.06-.23l1.4-1.4c.82-.82.92-2.13.23-3.06-.12-.17-.25-.33-.37-.5.15-.32.29-.65.41-.99l.61-.09c1.14-.17 2-1.17 2-2.33V11.9c0-1.16-.86-2.16-2-2.33l.02-.01ZM25.38 20.31c.1.19.24.37.4.53l1.4 1.4c.16.16.34.29.53.4-.36.09-.73.18-1.09.28-.46-.54-.96-1.04-1.51-1.51.1-.37.19-.73.28-1.09l-.01-.01Zm5.14 6.94c.22.52.02 1.13-.47 1.42-.47.28-.95.57-1.44.85a.76.76 0 0 0-.37.74c.11.92.11 1.85 0 2.77-.03.3.11.59.37.74.48.28.97.56 1.44.85.48.29.68.9.47 1.42l-1.04 2.51c-.22.52-.79.81-1.34.67-.53-.13-1.08-.27-1.62-.42-.29-.08-.6.03-.78.26-.57.73-1.23 1.38-1.96 1.96-.24.19-.34.49-.26.78.15.54.29 1.09.42 1.62.14.54-.16 1.12-.68 1.33l-2.51 1.04c-.52.22-1.13.02-1.42-.46-.28-.47-.57-.96-.85-1.44a.751.751 0 0 0-.74-.37c-.92.11-1.85.11-2.77 0a.769.769 0 0 0-.74.37c-.28.49-.57.97-.85 1.44-.28.46-.9.68-1.42.46l-2.51-1.04c-.52-.22-.81-.79-.68-1.33.13-.53.27-1.08.42-1.62a.73.73 0 0 0-.26-.78c-.73-.57-1.38-1.23-1.96-1.96a.744.744 0 0 0-.59-.28c-.06 0-.13 0-.19.03-.54.15-1.09.29-1.62.42a1.15 1.15 0 0 1-1.33-.67L2.2 36.05a1.15 1.15 0 0 1 .47-1.42c.47-.28.95-.57 1.44-.85.26-.15.4-.44.37-.74-.11-.92-.11-1.85 0-2.77.04-.3-.11-.59-.37-.74-.49-.28-.97-.57-1.44-.85-.48-.29-.68-.9-.46-1.42l1.04-2.51c.22-.52.79-.81 1.34-.68.53.13 1.07.27 1.62.42.29.08.6-.02.78-.26.58-.73 1.23-1.39 1.96-1.96.23-.19.34-.49.26-.78-.14-.54-.29-1.08-.42-1.62-.14-.54.15-1.12.67-1.33l2.51-1.04c.13-.05.26-.08.4-.08.42-.01.81.2 1.02.55.28.47.57.95.85 1.44.15.26.43.41.74.37.92-.11 1.85-.11 2.77 0 .3.03.59-.11.74-.37.28-.48.57-.97.85-1.44.29-.48.9-.68 1.42-.47l2.51 1.04c.52.22.81.79.68 1.33-.13.53-.27 1.08-.42 1.62-.08.29.02.6.26.78.73.58 1.39 1.23 1.96 1.96.19.23.49.34.78.26.54-.15 1.09-.29 1.62-.42.55-.14 1.12.15 1.33.68l1.04 2.51v-.01Zm15.36-13.39c0 .42-.31.78-.73.85-.34.05-.7.1-1.06.15-.29.04-.53.24-.62.53-.17.56-.39 1.1-.67 1.61-.14.26-.11.58.07.81.22.29.43.57.64.85.25.34.21.81-.08 1.11l-1.4 1.4c-.3.3-.78.33-1.11.08-.28-.21-.57-.42-.86-.64a.746.746 0 0 0-.81-.06c-.51.28-1.05.5-1.61.67-.28.08-.49.33-.53.62l-.15 1.06c-.06.41-.42.73-.84.73h-1.98a.85.85 0 0 1-.84-.73l-.15-1.06a.768.768 0 0 0-.53-.62c-.56-.17-1.1-.39-1.61-.67a.74.74 0 0 0-.36-.09.79.79 0 0 0-.46.15c-.29.22-.57.43-.86.64-.34.25-.81.21-1.11-.08l-1.4-1.4a.877.877 0 0 1-.09-1.11l.64-.85c.18-.23.21-.55.07-.81-.28-.51-.5-1.06-.67-1.61a.755.755 0 0 0-.62-.53l-1.06-.15a.87.87 0 0 1-.73-.85v-1.98c0-.42.31-.78.73-.85.34-.05.7-.1 1.06-.15.29-.04.53-.25.62-.53.17-.56.39-1.1.67-1.61.14-.26.11-.58-.06-.81-.22-.29-.44-.57-.64-.85a.853.853 0 0 1 .09-1.11l1.4-1.4c.3-.3.78-.33 1.11-.08.28.21.57.42.85.64.23.18.55.2.81.06.51-.27 1.05-.5 1.61-.67.28-.08.49-.33.53-.62l.15-1.06a.87.87 0 0 1 .85-.73h1.98c.42 0 .78.31.85.73l.15 1.06c.04.29.25.53.53.62.56.17 1.1.39 1.61.67.26.14.58.12.81-.06.29-.22.57-.43.85-.64.34-.25.82-.21 1.11.08l1.4 1.4c.3.3.33.78.08 1.11-.21.28-.42.57-.64.85-.18.23-.2.55-.07.81.28.51.5 1.05.67 1.61.08.28.33.49.62.53l1.06.15c.41.06.73.43.73.85v1.98Z" fill="#3377B3"/><path d="M35.13 9.84c-1.67 0-3.03 1.36-3.03 3.03 0 1.67 1.36 3.03 3.03 3.03 1.67 0 3.03-1.36 3.03-3.03 0-1.67-1.36-3.03-3.03-3.03Zm0 4.56c-.84 0-1.53-.69-1.53-1.53 0-.84.69-1.53 1.53-1.53.84 0 1.53.69 1.53 1.53 0 .84-.69 1.53-1.53 1.53ZM16.36 26.01c-.74 0-1.46.14-2.15.43a5.58 5.58 0 0 0-3.04 3.05 5.555 5.555 0 0 0 0 4.31 5.593 5.593 0 0 0 3.04 3.04c.69.29 1.42.43 2.15.43s1.46-.14 2.15-.43a5.627 5.627 0 0 0 3.04-7.35 5.613 5.613 0 0 0-5.21-3.47l.02-.01Zm1.59 9.44a4.12 4.12 0 0 1-3.16 0 4.098 4.098 0 0 1-2.23-2.23 4.13 4.13 0 0 1 2.23-5.39c.5-.21 1.03-.31 1.57-.31 1.68 0 3.18 1 3.82 2.55a4.13 4.13 0 0 1-2.23 5.39v-.01Z" fill="#3377B3"/></symbol><symbol id="symbol-RSE" viewBox="0 0 64 58"><path d="M10.92 25.92v-1.16c0-1.38-.55-2.6-1.55-3.44-.68-.57-1.55-.94-2.51-1.09 1.28-.4 2.22-1.59 2.22-3 0-1.74-1.42-3.16-3.16-3.16-1.74 0-3.16 1.42-3.16 3.16 0 1.41.94 2.6 2.22 3-.96.15-1.82.52-2.51 1.09-1 .84-1.55 2.06-1.55 3.44v1.16c0 .54.32 1.03.82 1.24.07.03 1.86.77 4.17.77 2.31 0 4.1-.74 4.17-.77.5-.21.83-.7.83-1.24h.01Zm-6.66-8.69c0-.92.75-1.66 1.66-1.66.91 0 1.66.75 1.66 1.66 0 .91-.75 1.66-1.66 1.66-.91 0-1.66-.75-1.66-1.66Zm5.16 8.59c-.36.14-1.76.62-3.5.62s-3.13-.48-3.5-.62v-1.06c0-.93.36-1.74 1.01-2.29.62-.52 1.5-.81 2.48-.81s1.86.29 2.48.81c.65.55 1.01 1.36 1.01 2.29v1.06h.02Zm28.75-14.16c-2.63-1.9-5.84-3.04-9.33-3.04-8.79 0-15.95 7.15-15.95 15.95 0 8.8 7.15 15.95 15.95 15.95 6.09 0 11.39-3.44 14.08-8.47 0-.01.01-.03.02-.04 1.18-2.22 1.85-4.75 1.85-7.43 0-5.26-2.57-9.92-6.51-12.83-.04-.03-.07-.06-.11-.08v-.01Zm-4.07-.53c.36.14.71.3 1.05.46-1.22.18-2.53.61-3.97 1.3-.06 0-.11.02-.17.05-.01-.01-.02-.03-.04-.06a.161.161 0 0 1-.03-.09c.95-.27 1.82-.68 2.59-1.23.22-.15.4-.3.58-.44l-.01.01Zm-8.44-.64s.07.02.11.02c.34 0 .74.46.74 1.03 0 .57-.35.92-.7.96h-.13c-.15.01-.3.05-.45.11h-.02c-.57.24-.91.84-.82 1.45-.09 1.96-1.69 3.48-3.72 3.48h-.23c-1.01.13-1.89.82-2.3 1.79-.27.64-.31 1.33-.15 1.91-.59-.95-1.5-1.67-2.56-2 1.74-4.37 5.56-7.7 10.23-8.76v.01Zm2.06 18.15h-.07c-.74 0-1.34.61-1.33 1.35 0 1.15-.85 2.11-1.81 2.16h-.16c-.2 0-.39.05-.55.13-.62.28-.92.99-.72 1.63.01.28-.11.57-.29.83-.18-.27-.32-.61-.39-.99-.14-.75-.01-1.56.31-2.11.06-.09.12-.19.15-.27a.87.87 0 0 0 .08-.28c.41-1.88-.72-3.81-2.57-4.39a.467.467 0 0 0-.17-.03c-1.09-.34-1.76-1.41-1.49-2.45 0-.02 0-.06.01-.09.02-.13.03-.25.02-.32-.01-.63-.14-1.23-.37-1.79a1.419 1.419 0 0 0 .96.64c.13.06.25.17.26.17 0 .11.02.23.04.3.05.22.16.42.25.52 1.02 1.48 3.11 1.91 4.79 1.02.11-.04.21-.03.27 0a3.052 3.052 0 0 0 2.61 2.06h.1c.36 0 .75.37.75.97 0 .56-.35.92-.7.96l.02-.02Zm14.59 1.14c-.52-.76-1.24-1.4-2.12-1.82-.09-.05-.18-.1-.27-.13-.06-.02-.12-.03-.18-.04-.76-.27-1.2-1.17-1.01-1.98.02-.07.04-.14.04-.17 0-.02.02-.12.02-.14.06-.47.03-.94-.09-1.4a3.69 3.69 0 0 0-3.06-2.74c-.48-.08-.92-.06-1.34.05h-.06c-.08 0-.16.02-.24.05-.42.16-.9.22-1.27.18-.08-.01-.16-.02-.22-.02-1.11 0-2.01-.92-2.01-2.05 0-1.07.82-1.95 1.93-2.05.04 0 .08.01.12.02.65.04 1.3.44 1.79 1.09.05.07.1.14.16.2 2.14 2.18 5.47 2.53 7.97.98.53 1.5.83 3.1.83 4.77 0 1.84-.36 3.59-.99 5.21v-.01Zm-.43-11.4a4.934 4.934 0 0 1-6.32-.63c-.75-.98-1.72-1.58-2.75-1.7a.727.727 0 0 0-.25-.04c-1.96 0-3.55 1.59-3.55 3.56a3.55 3.55 0 0 0 3.54 3.56c.59.07 1.26-.01 1.86-.21.1 0 .16-.01.24-.04.22-.07.47-.08.79-.03.88.12 1.6.76 1.82 1.63.07.28.09.57.04.94-.4 1.7.53 3.39 2.12 3.86.03 0 .06.02.09.02 1.01.49 1.73 1.33 2 2.27-2.47 4.45-7.21 7.47-12.64 7.47-7.97 0-14.45-6.48-14.45-14.45 0-1.36.2-2.66.55-3.91 1.31.39 2.26 1.66 2.3 3.2-.47 1.81.71 3.72 2.63 4.26.03 0 .07.01.11.02 1.07.38 1.72 1.51 1.46 2.68-.53.91-.73 2.1-.52 3.2.19 1 .68 1.85 1.39 2.38.13.1.29.15.45.15.15 0 .3-.04.43-.13.76-.53 1.51-1.62 1.36-2.77 1.77-.11 3.16-1.62 3.25-3.5 1.19-.08 2.12-1.16 2.12-2.46s-1.01-2.47-2.29-2.47c-.71-.07-1.16-.64-1.3-1.18a.767.767 0 0 0-.16-.31c-.48-.56-1.33-.75-2.12-.43-1.06.55-2.35.33-2.96-.6-.1-.76-.77-1.33-1.37-1.51-.06-.02-.06-.04-.12-.05-.28-.36-.23-.86-.08-1.21.16-.38.54-.81 1.14-.88h.05c2.85 0 5.12-2.2 5.19-5.02v-.03c1.19-.09 2.11-1.16 2.11-2.46 0-.5-.14-.96-.37-1.36.4-.03.8-.06 1.21-.06 1.19 0 2.34.16 3.44.43-.61.38-1.28.68-2.02.87-.1.03-.2.07-.29.14-.59.46-.73 1.35-.33 2.06.22.4.57.69.97.8.13.04.26.05.38.05.19 0 .37-.04.53-.11.05-.01.1-.03.15-.06 1.82-.89 3.38-1.32 4.78-1.32h.13c.3 0 .52 0 .9.05 1.86 1.4 3.37 3.23 4.38 5.35l-.02-.02Zm6.73 26.02c-.6-.16-1.21-.14-1.78.06-.03 0-.07.02-.1.03-.17.06-.33.13-.49.23l-.53.31-.83-.51a3.17 3.17 0 0 0-3.46.08l-7.9 5.37-.47-.13s-.07-.03-.1-.04l-1.14-.3c-.17-.08-.7-.32-1.38-.63l1.81.28c1.67.44 3.33-.53 3.78-2.2.45-1.68-.51-3.36-2.25-3.82l-10.86-2.09c-.32-.1-.63-.11-.89-.1-.09 0-.18.02-.25.06-.43.05-.84.18-1.21.4l-1.53.88s-.03.01-.04.02h-3.92v-1.57c0-.41-.34-.75-.75-.75H7.49c-.41 0-.75.34-.75.75v13.49c0 .41.34.75.75.75h6.83c.41 0 .75-.34.75-.75v-1.51l4.75-.02s.09.04.13.05L36 57.12c.06.02.08.02.14.02.07.01.22.03.42.03.12 0 .26 0 .4-.04.31-.05.78-.16 1.24-.43l11.16-6.61c1.5-.87 2-2.74 1.14-4.24a3.04 3.04 0 0 0-1.89-1.45Zm-6.34 1.43c.55-.37 1.27-.39 1.83-.04l.16.1-8.06 4.79-.76-.2 6.83-4.64v-.01Zm-28.71 7.63H8.23V41.47h5.33v11.99ZM48.6 48.8l-11.17 6.61c-.2.11-.45.2-.73.24-.15.02-.29 0-.38 0h-.01L20.4 51.31c-.12-.05-.25-.08-.39-.1h-4.95v-7.42h3.82c.24.02.48-.02.69-.11.04-.02.09-.04.13-.06l1.61-.93c.23-.13.49-.21.76-.21.07 0 .14-.02.21-.04.07 0 .13.01.18.03l.12.03 10.86 2.08c.87.23 1.37 1.1 1.13 1.97-.23.86-1.09 1.36-2.03 1.12l-7.23-1.11a.756.756 0 0 0-.8 1.05c.08.173 1.263.783 3.55 1.83 2.35 1.07 3.04 1.38 3.3 1.48l1.11.31c.03.01.07.03.1.04l3.29.88c.35.09.71.05 1.03-.14l10.11-6c.06-.03.11-.06.17-.08.03 0 .06-.02.09-.03.3-.11.63-.13.95-.04.29.08.7.27.97.75.45.78.19 1.75-.59 2.2l.01-.01ZM10.9 38.77c.16 0 .32-.05.45-.15.33-.25.39-.72.14-1.05-1.79-2.36-3.06-5-3.79-7.85a.75.75 0 0 0-1.45.37 23.09 23.09 0 0 0 4.05 8.39c.15.19.37.3.6.3v-.01Z" fill="#3377B3"/><path d="M9.02 13.46c.36.21.82.09 1.03-.27 3.93-6.7 11.2-10.86 18.96-10.86 7.76 0 15.46 4.4 19.31 11.5.14.25.39.39.66.39.12 0 .24-.03.36-.09.36-.2.5-.65.3-1.02A23.48 23.48 0 0 0 29.01.83c-8.61 0-16.05 4.45-20.25 11.6-.21.36-.09.82.27 1.03h-.01Zm49.95 4.37c-1.17-1.67-2.94-2.65-4.82-2.65-2.73 0-5.09 2.01-5.88 4.94-1.42.5-2.41 1.97-2.41 3.69 0 2.14 1.55 3.88 3.46 3.88.3 0 .59-.04.87-.13a6 6 0 0 0 2.03 1.28c-2.02 6-6.43 9.92-8.69 11.92-.31.27-.34.75-.06 1.06.15.17.35.25.56.25.18 0 .35-.06.5-.19 2.39-2.11 7.07-6.27 9.18-12.72.15.01.29.04.44.04 1.15 0 2.25-.36 3.22-1.04 3.02.94 5.83-1.74 5.83-5.08 0-2.75-1.86-5.01-4.24-5.25h.01Zm-.42 9.02c-.33 0-.66-.07-1.02-.22a.775.775 0 0 0-.76.11c-.78.63-1.71.92-2.63.92.14-.55.25-1.11.35-1.7.74-.38 3.05-1.74 3.73-4.39a.75.75 0 0 0-1.45-.37c-.34 1.35-1.29 2.28-2.05 2.85.08-1.15.1-2.34 0-3.59-.03-.41-.38-.71-.81-.69-.41.03-.72.4-.68.81.11 1.37.09 2.67-.03 3.9-.5-.17-1.01-.48-1.27-.85a.753.753 0 0 0-1.04-.2c-.34.23-.43.7-.2 1.04.51.75 1.42 1.28 2.29 1.51-.09.47-.19.93-.31 1.38-.63-.25-1.22-.63-1.71-1.18a.767.767 0 0 0-.56-.25c-.11 0-.23.03-.33.08-.23.12-.48.18-.73.18-1.08 0-1.96-1.07-1.96-2.38 0-1.16.72-2.17 1.67-2.34.3-.06.54-.29.6-.59.51-2.47 2.37-4.2 4.52-4.2 1.48 0 2.89.85 3.76 2.28.14.22.38.36.64.36 1.74 0 3.15 1.69 3.15 3.77s-1.42 3.77-3.15 3.77l-.02-.01Z" fill="#3377B3"/></symbol><symbol id="symbol-sablier" viewBox="0 0 30 40"><path d="M27.71 34.64v-.02c.01-.27.02-.54.02-.82 0-5.66-3.17-10.66-8.07-12.73-.41-.17-.67-.59-.67-1.06 0-.47.26-.89.67-1.06 3.15-1.33 5.57-3.86 6.91-7 0-.02.01-.03.02-.05.73-1.74 1.14-3.66 1.14-5.67 0-.27 0-.54-.02-.82v-.03a2.502 2.502 0 0 0 2.06-2.46c0-1.38-1.12-2.51-2.51-2.51H2.73C1.35.41.22 1.53.22 2.92c0 1.23.89 2.25 2.06 2.46v.03c-.01.27-.02.54-.02.81 0 1.97.39 3.85 1.09 5.56 0 .02.01.03.02.05 1.33 3.19 3.77 5.77 6.96 7.12.41.17.67.59.67 1.06 0 .47-.26.89-.67 1.06-4.91 2.07-8.08 7.07-8.08 12.73 0 .27 0 .54.02.82v.02A2.502 2.502 0 0 0 .21 37.1c0 1.38 1.12 2.51 2.51 2.51h24.53c1.38 0 2.51-1.12 2.51-2.51 0-1.23-.89-2.25-2.06-2.46h.01Zm-23.04-.11 8.67-4.7c1.02-.6 2.29-.6 3.33.01l8.76 4.75-20.76-.06Zm.07-23.34c-.63-1.53-.98-3.22-.98-4.98 0-.25 0-.5.09-.8l22.36.06c.01.25.02.49.02.74 0 1.41-.23 2.77-.63 4.04-1.71-1.37-5.74-3.51-11.07.74-5.55 4.42-9.2.85-9.79.2ZM1.73 2.9c0-.55.45-1.01 1.01-1.01h24.53c.55 0 1.01.45 1.01 1.01s-.45 1.01-1.01 1.01H2.74c-.55 0-1.01-.45-1.01-1.01Zm9.19 19.54c.96-.41 1.59-1.37 1.59-2.44 0-1.07-.62-2.04-1.59-2.44-1.79-.75-3.31-1.96-4.49-3.46.8.33 1.74.57 2.82.57 1.76 0 3.86-.63 6.21-2.5 5.06-4.03 8.54-1.42 9.56-.44-1.22 2.61-3.3 4.71-5.95 5.83-.96.41-1.59 1.37-1.59 2.44 0 1.07.62 2.04 1.59 2.44 4.21 1.78 6.97 6.01 7.14 10.87l-8.8-4.77a4.735 4.735 0 0 0-4.81-.01l-8.83 4.79c.17-4.86 2.93-9.09 7.14-10.87l.01-.01ZM27.26 38.1H2.73c-.55 0-1.01-.45-1.01-1.01s.45-1.01 1.01-1.01h24.53c.55 0 1.01.45 1.01 1.01s-.45 1.01-1.01 1.01Z" fill="#3377B3"/><path d="M15 22.28c.1 0 .2-.02.29-.06a.75.75 0 0 0 .24-1.22c-.28-.28-.77-.28-1.06 0-.14.14-.22.34-.22.53s.08.39.22.53.33.22.53.22Zm0 2.17a.776.776 0 0 0 .53-.22.75.75 0 0 0 0-1.06.807.807 0 0 0-.24-.17.76.76 0 0 0-1.04.7.75.75 0 0 0 .75.75Zm0 2.16c.1 0 .2 0 .29-.05.09-.05.17-.09.24-.16a.75.75 0 0 0 0-1.06.807.807 0 0 0-.24-.17.756.756 0 0 0-1.04.7c0 .2.08.38.22.53.14.14.33.21.53.21Z" fill="#3377B3"/></symbol><symbol id="symbol-sante" viewBox="0 0 42 36"><path d="M30.1.84c6.157 0 11.18 5.053 11.18 11.204 0 6.045-3.78 11.651-10.04 16.709a54.723 54.723 0 0 1-6.8 4.661 53.51 53.51 0 0 1-1.898 1.057l-.345.181c-.409.213-.704.358-.865.434a.78.78 0 0 1-.664 0l-.28-.136-.585-.298a52.29 52.29 0 0 1-2.243-1.239 54.75 54.75 0 0 1-6.8-4.663 40.8 40.8 0 0 1-3.52-3.185.78.78 0 0 1 1.115-1.09 39.25 39.25 0 0 0 3.386 3.062 53.213 53.213 0 0 0 6.605 4.529c.657.383 1.275.726 1.842 1.026l.494.258.318.161.479-.243a50.71 50.71 0 0 0 2.175-1.201 53.185 53.185 0 0 0 6.606-4.528c5.928-4.79 9.46-10.027 9.46-15.495 0-5.292-4.326-9.644-9.62-9.644a9.626 9.626 0 0 0-8.419 4.93.78.78 0 0 1-1.362 0 9.624 9.624 0 0 0-8.42-4.93c-5.292 0-9.619 4.352-9.619 9.644 0 3.08 1.134 6.11 3.246 9.076H8.52c.097 0 .172-.095.303-.553l.214-.809C9.387 18.521 9.79 18 10.86 18c1.056 0 1.478.548 2.069 2.2l.372 1.086c.18.509.325.857.437 1.079l.067.123.027-.073c.041-.121.084-.265.127-.429l.043-.17c.147-.604.283-1.368.448-2.492l.513-3.686c.742-5.18 1.297-6.998 2.917-6.998 1.517 0 1.93 1.28 2.47 7.108l.063.693.064.735.325 3.804c.141 1.575.251 2.587.383 3.486l.072.467.025.154c.146.874.306 1.531.478 1.956.03.074.059.137.086.191l.048.086.012-.006c.334-.234.768-1.368 1.23-3.438l.525-2.514c.553-2.554.919-3.362 2.02-3.362 1.055 0 1.628.654 2.112 1.86l.18.482.17.475.047.12.079.183h2.871a.78.78 0 0 1 .773.674l.007.106c0 .43-.35.78-.78.78h-3.12c-.67 0-.962-.367-1.27-1.142l-.067-.173c-.044-.118-.223-.623-.27-.751l-.13-.321c-.166-.385-.312-.597-.45-.685l-.014-.007-.033.06a2.64 2.64 0 0 0-.1.222l-.053.138-.087.255c-.13.409-.26.94-.42 1.697l-.34 1.646-.134.628c-.728 3.33-1.356 4.673-2.872 4.673l-.164-.005c-1.467-.102-1.83-1.665-2.401-8.17l-.357-4.165c-.174-1.946-.3-3.032-.48-4.107-.146-.874-.305-1.531-.477-1.956a2.42 2.42 0 0 0-.087-.191l-.031-.058-.015.02c-.31.442-.823 2.52-1.31 5.915l-.332 2.422c-.632 4.546-.892 5.615-2.146 5.615-1.144 0-1.544-.643-2.22-2.637l-.221-.649c-.36-1.018-.58-1.394-.679-1.394-.105 0-.184.112-.337.676l-.076.293c-.38 1.52-.748 2.151-1.927 2.151H1.5a.78.78 0 0 1 0-1.56h2.141C1.746 18.188.72 15.157.72 12.044.72 5.893 5.743.84 11.9.84c3.55 0 6.806 1.66 8.889 4.373l.211.284.014-.019A11.187 11.187 0 0 1 29.768.845L30.1.84Z" fill="#3377B3"/></symbol><symbol id="symbol-search" viewBox="0 0 20 20"><g transform="translate(1 1)" stroke-width="2" fill="none" fill-rule="evenodd" stroke-linecap="round" stroke-linejoin="round"><circle cx="8" cy="8" r="8"/><path d="m18 18-4.35-4.35"/></g></symbol><symbol id="symbol-securite" viewBox="0 0 36 40"><path d="M17.34.237a1.037 1.037 0 0 1 1.46.141c2.727 3.64 10.384 5.603 16.2 5.603a1 1 0 0 1 1 1V19.99c0 11.002-9.549 17.635-17.725 19.972a.989.989 0 0 1-.55 0C9.549 37.624 0 30.99 0 19.989V6.982a1 1 0 0 1 1-1c5.817 0 13.473-1.965 16.2-5.604a1.03 1.03 0 0 1 .14-.141ZM18 2.499C14.615 5.905 7.78 7.769 2 7.965v12.024c0 9.767 8.555 15.755 16 17.969 7.445-2.214 16-8.202 16-17.969V7.965c-5.78-.196-12.615-2.06-16-5.466Zm0 7.484c5.523 0 10 4.48 10 10.006s-4.477 10.005-10 10.005S8 25.514 8 19.99c.006-5.523 4.48-10 10-10.006Zm0 2.002c-4.418 0-8 3.583-8 8.004a8.002 8.002 0 0 0 8 8.004c4.418 0 8-3.584 8-8.004a8.01 8.01 0 0 0-8-8.004Zm2.318 5.27a1 1 0 1 1 1.39 1.44l-4.001 4.002-.095.084a1 1 0 0 1-1.32-.084l-2-2.001-.024-.024a1.001 1.001 0 0 1 1.439-1.39L17 20.575l3.293-3.295a.944.944 0 0 1 .025-.025Z" fill="#3377B3"/></symbol><symbol id="symbol-telephone" viewBox="0 0 24 24"><path fill-rule="evenodd" d="M12.027 0a11.898 11.898 0 0 1 8.46 3.51A11.934 11.934 0 0 1 24 12.083a.61.61 0 0 1-1.04.433.609.609 0 0 1-.178-.43 10.786 10.786 0 0 0-3.118-7.678 10.746 10.746 0 0 0-7.638-3.188.606.606 0 0 1-.609-.61.609.609 0 0 1 .61-.61ZM5.583 3.786a2.175 2.175 0 0 0-1.57-.655 2.23 2.23 0 0 0-1.585.656L1.327 4.883a4.99 4.99 0 0 0-1.275 4.11c.256 3.013 2.237 6.631 5.274 9.682 3.037 3.05 6.687 5.025 9.693 5.316.219.012.438.012.676 0a4.72 4.72 0 0 0 3.43-1.276l1.094-1.104c.42-.421.657-.993.655-1.59a2.181 2.181 0 0 0-.654-1.57l-2.29-2.303a2.23 2.23 0 0 0-3.163 0l-1.291 1.294a21.43 21.43 0 0 1-3.834-3.059 21.849 21.849 0 0 1-3.053-3.84L7.88 9.25a2.239 2.239 0 0 0 0-3.168L5.584 3.786Zm-2.295.859c.19-.19.449-.295.718-.294.27-.001.529.105.72.295l2.297 2.327a1.014 1.014 0 0 1 0 1.433l-1.624 1.627a.61.61 0 0 0-.097.738 22.146 22.146 0 0 0 3.482 4.496 22.119 22.119 0 0 0 4.49 3.49.607.607 0 0 0 .735-.098l1.624-1.627a1.01 1.01 0 0 1 1.431 0l2.298 2.302c.19.192.296.451.295.722a1.02 1.02 0 0 1-.295.695l-1.111 1.105a3.908 3.908 0 0 1-3.134.865c-2.673-.235-6.08-2.12-8.892-4.938-2.814-2.818-4.696-6.208-4.953-8.885a3.892 3.892 0 0 1 .864-3.141l1.152-1.112Zm13.767 2.369a6.285 6.285 0 0 0-4.477-1.874.608.608 0 0 0-.527.915.61.61 0 0 0 .529.305 5.069 5.069 0 0 1 3.575 1.515 5.088 5.088 0 0 1 1.497 3.65.608.608 0 1 0 1.217-.004 6.308 6.308 0 0 0-1.814-4.507Z" clip-rule="evenodd"/></symbol><symbol id="symbol-transports" viewBox="0 0 66 40"><path d="M27.87 17.82h-5.83c-.41 0-.75.34-.75.75v8.83c0 .41.34.75.75.75h5.83c.41 0 .75-.34.75-.75v-8.83c0-.41-.34-.75-.75-.75Zm-5.08 1.5h4.33v1.11h-4.33v-1.11Zm4.33 7.33h-4.33v-4.72h4.33v4.72Zm9.31-8.83H30.6c-.41 0-.75.34-.75.75v8.83c0 .41.34.75.75.75h5.83c.41 0 .75-.34.75-.75v-8.83c0-.41-.34-.75-.75-.75Zm-5.08 1.5h4.33v1.11h-4.33v-1.11Zm4.33 7.33h-4.33v-4.72h4.33v4.72Z" fill="#3377B3"/><path d="M65.05 32.85v-.02l-.67-10.82-.03-.12v-.07l-.31-.92a.94.94 0 0 0-.12-.22 4.193 4.193 0 0 0-3.31-1.63H57.9v-1.29c0-.41-.34-.75-.75-.75h-9.92c-.41 0-.75.34-.75.75v1.29h-6.73v-1.81a3.15 3.15 0 0 0-3.15-3.15H25.64V12.8c0-1.54-1.18-2.79-2.68-2.95l3.33-3.33c.29-.29.29-.77 0-1.06L21.71.88a.75.75 0 0 0-1.06 0l-4.58 4.58a.75.75 0 0 0 0 1.06l3.33 3.33c-1.5.15-2.68 1.41-2.68 2.95v1.29H6.19c-1.5 0-2.8 1.07-3.09 2.54L.93 27.57s-.01.1-.01.15v6.13A3.15 3.15 0 0 0 4.07 37h.36a3.11 3.11 0 0 0 3.01 2.36c.95 0 1.79-.44 2.36-1.11.57.67 1.41 1.11 2.36 1.11A3.11 3.11 0 0 0 15.17 37h10.32a3.11 3.11 0 0 0 3.01 2.36c.95 0 1.79-.44 2.36-1.11.57.67 1.41 1.11 2.36 1.11A3.11 3.11 0 0 0 36.23 37h.33c.75 0 1.43-.27 1.97-.71H50.6c.35 0 .65-.24.73-.58a3.087 3.087 0 0 1 2.32-2.32c1.65-.38 3.3.67 3.68 2.32.08.34.38.58.73.58h5.23c1.04-.11 1.81-1.04 1.72-2.01v-1.41l.04-.02Zm-21.17-3.93V22.8h7.49v6.12h-7.49Zm-4.13 0V22.8h2.63v6.12h-2.63Zm13.12-6.12h10.06l.58 9.32h-1.39c-.6 0-1.19-.18-1.7-.52l-3.35-2.21c-.47-.3-1.01-.46-1.57-.46h-2.63V22.8Zm-4.89-4.31h8.42v.54h-8.42v-.54Zm12.63 2.04c.7 0 1.37.28 1.87.76H39.76v-.76h20.85ZM21.19 2.46l3.52 3.52-3.52 3.52-3.52-3.52 3.52-3.52Zm-2.96 10.33c0-.81.66-1.48 1.48-1.48h2.96c.81 0 1.48.66 1.48 1.48v1.29h-5.91v-1.29h-.01ZM4.1 19.32h3.29v7.33H2.65l1.45-7.33Zm3.35 18.53c-.62 0-1.15-.35-1.42-.86h2.84c-.27.51-.8.86-1.42.86Zm6.53-2.36h-2.86V19.32h2.86v16.17Zm-1.8 2.36c-.62 0-1.15-.35-1.42-.86h2.84c-.27.51-.8.86-1.42.86Zm3.3-2.36V19.32h2.86v16.17h-2.86Zm13.05 2.36c-.62 0-1.15-.35-1.42-.86h2.84c-.27.51-.8.86-1.42.86Zm4.73 0c-.62 0-1.15-.35-1.42-.86h2.84c-.27.51-.8.86-1.42.86Zm-13.42-2.36V18.57c0-.41-.34-.75-.75-.75h-8.71c-.41 0-.75.34-.75.75v16.92H4.08c-.91 0-1.65-.74-1.65-1.65v-5.68h5.71c.41 0 .75-.34.75-.75v-8.83c0-.41-.34-.75-.75-.75H4.4l.18-.91c.15-.77.83-1.33 1.62-1.33h30.4c.91 0 1.65.74 1.65 1.65v16.61c0 .91-.74 1.65-1.65 1.65H19.84v-.01Zm43.42-.71h-4.6c-.35-.94-.99-1.73-1.85-2.27a4.548 4.548 0 0 0-3.45-.59 4.613 4.613 0 0 0-3.28 2.87h-10.5c.09-.3.16-.61.16-.94v-3.42h15.74c.27 0 .54.08.76.22l3.34 2.21c.75.51 1.62.77 2.53.77h1.44v.71c.02.22-.14.42-.29.44Z" fill="#3377B3"/><path d="M54.35 33.54c-1.6 0-2.9 1.3-2.9 2.9 0 1.6 1.3 2.9 2.9 2.9 1.6 0 2.9-1.3 2.9-2.9 0-1.6-1.3-2.9-2.9-2.9Zm0 4.31c-.77 0-1.4-.63-1.4-1.4 0-.77.63-1.4 1.4-1.4.77 0 1.4.63 1.4 1.4 0 .77-.63 1.4-1.4 1.4Z" fill="#3377B3"/></symbol><symbol shape-rendering="geometricPrecision" text-rendering="geometricPrecision" image-rendering="optimizeQuality" fill-rule="evenodd" clip-rule="evenodd" id="symbol-twitter" viewBox="0 0 512 462.799"><path fill-rule="nonzero" d="M403.229 0h78.506L310.219 196.04 512 462.799H354.002L230.261 301.007 88.669 462.799h-78.56l183.455-209.683L0 0h161.999l111.856 147.88L403.229 0zm-27.556 415.805h43.505L138.363 44.527h-46.68l283.99 371.278z"/></symbol><symbol id="symbol-usine-immeuble" viewBox="0 0 50 40"><path d="M37.97 37.86h-4.73V1.39c0-.41-.34-.75-.75-.75H11.22c-.41 0-.75.34-.75.75v36.46H5.74c-.41 0-.75.34-.75.75s.34.75.75.75h32.23c.41 0 .75-.34.75-.75s-.34-.75-.75-.75v.01ZM31.74 2.15v4.72H11.97V2.15h19.77ZM11.97 8.37h19.77v29.49h-3.59v-7.23c0-.41-.34-.75-.75-.75H16.32c-.41 0-.75.34-.75.75v7.23h-3.59V8.37h-.01ZM22.6 31.38h4.04v6.48H22.6v-6.48Zm-1.5 6.48h-4.04v-6.48h4.04v6.48Z" fill="#3377B3"/><path d="M16.32 14.19H27.4c.41 0 .75-.34.75-.75s-.34-.75-.75-.75H16.32c-.41 0-.75.34-.75.75s.34.75.75.75Zm0 4.58H27.4c.41 0 .75-.34.75-.75s-.34-.75-.75-.75H16.32c-.41 0-.75.34-.75.75s.34.75.75.75Zm0 4.58H27.4c.41 0 .75-.34.75-.75s-.34-.75-.75-.75H16.32c-.41 0-.75.34-.75.75s.34.75.75.75Zm0 4.58H27.4c.41 0 .75-.34.75-.75s-.34-.75-.75-.75H16.32c-.41 0-.75.34-.75.75s.34.75.75.75ZM7.46 14.98H4.84c-.41 0-.75.34-.75.75s.34.75.75.75h2.62c.41 0 .75-.34.75-.75s-.34-.75-.75-.75Zm0 4.58H4.84c-.41 0-.75.34-.75.75s.34.75.75.75h2.62c.41 0 .75-.34.75-.75s-.34-.75-.75-.75Zm0 4.58H4.84c-.41 0-.75.34-.75.75s.34.75.75.75h2.62c.41 0 .75-.34.75-.75s-.34-.75-.75-.75Zm.75 5.33c0-.41-.34-.75-.75-.75H4.84c-.41 0-.75.34-.75.75s.34.75.75.75h2.62c.41 0 .75-.34.75-.75Z" fill="#3377B3"/><path d="M8.21 7.61c0-.41-.34-.75-.75-.75H1.23c-.41 0-.75.34-.75.75v27.46c0 .41.34.75.75.75s.75-.34.75-.75V8.36h5.48c.41 0 .75-.34.75-.75Zm40.55 14.24h-2.08l-.86-7.54a.741.741 0 0 0-.75-.66h-6c-.38 0-.7.29-.75.66l-.86 7.54h-1.21c-.41 0-.75.34-.75.75s.34.75.75.75h11.76v11.72c0 .41.34.75.75.75s.75-.34.75-.75V22.6c0-.41-.34-.75-.75-.75Zm-9.02-6.7h4.67l.77 6.7h-6.2l.77-6.7h-.01Z" fill="#3377B3"/></symbol><symbol id="symbol-verre-vin" viewBox="0 0 22 50"><path d="M21.77 20.29c.82-6.05-2.33-18.32-2.46-18.83-.1-.4-.52-.64-.91-.54-.4.1-.64.51-.54.91.02.09 1.53 5.95 2.22 11.49-1.66-.55-4.85-1.06-9.03.84-5.04 2.3-8.24.97-9.25.41.59-5.86 2.33-12.65 2.36-12.74a.75.75 0 0 0-1.45-.37C2.58 1.98-.57 14.25.25 20.29c.83 6.13 4.81 10.33 10.02 10.7v14.23l-8.48 2.4c-.36.1-.59.45-.54.83.05.37.37.65.74.65h18.06c.37 0 .69-.28.74-.65a.764.764 0 0 0-.54-.83l-8.48-2.4V30.99c5.2-.37 9.19-4.57 10.02-10.7h-.02Zm-20.05-.2c-.15-1.11-.15-2.46-.06-3.92.86.38 2.18.79 3.96.79 1.65 0 3.68-.36 6.04-1.44 4.53-2.07 7.64-.98 8.59-.53.18 1.91.22 3.7.03 5.1-.78 5.73-4.42 9.44-9.28 9.44-4.86 0-8.5-3.71-9.28-9.44ZM7.37 47.6 11 46.57l3.63 1.03H7.37Z" fill="#3377B3"/></symbol><symbol id="symbol-whatsapp" viewBox="0 0 20 20"><path d="M17.086 2.906A9.918 9.918 0 0 0 10.042 0C4.552 0 .086 4.446.084 9.91a9.851 9.851 0 0 0 1.329 4.955L0 20l5.279-1.378a9.985 9.985 0 0 0 4.759 1.206h.004c5.488 0 9.956-4.446 9.958-9.91a9.826 9.826 0 0 0-2.914-7.012Zm-7.044 15.248h-.004a8.297 8.297 0 0 1-4.212-1.148l-.302-.178-3.133.818.836-3.04-.197-.312A8.188 8.188 0 0 1 1.765 9.91c.002-4.541 3.715-8.236 8.28-8.236a8.24 8.24 0 0 1 5.852 2.415 8.169 8.169 0 0 1 2.422 5.828c-.002 4.542-3.715 8.237-8.277 8.237Zm4.54-6.169c-.249-.124-1.472-.723-1.7-.806-.228-.082-.394-.123-.56.124-.166.248-.643.806-.788.971-.145.166-.29.186-.54.062-.248-.124-1.05-.385-2-1.229-.74-.656-1.24-1.467-1.384-1.715-.145-.248-.002-.37.109-.506.27-.332.539-.681.622-.847.083-.165.041-.31-.021-.433-.062-.124-.56-1.343-.767-1.84-.202-.482-.407-.417-.56-.424a9.993 9.993 0 0 0-.477-.009.916.916 0 0 0-.663.31c-.228.248-.871.847-.871 2.066 0 1.219.891 2.396 1.016 2.562.124.165 1.754 2.666 4.25 3.739.594.255 1.057.407 1.419.521.596.189 1.138.162 1.567.098.478-.07 1.472-.599 1.68-1.177.207-.579.207-1.074.145-1.178-.062-.103-.228-.165-.477-.289Z"/></symbol><symbol id="symbol-youtube" viewBox="0 0 23.4 17"><path d="M23 14.3c-.3 1.3-1.3 2.3-2.5 2.4-2.9.3-5.9.3-8.8.3s-5.9 0-8.8-.3C1.7 16.6.7 15.6.4 14.3 0 12.4 0 10.4 0 8.5s0-3.9.4-5.8C.7 1.4 1.7.4 2.9.3 5.8 0 8.8 0 11.7 0s5.9 0 8.8.3c1.2.1 2.2 1.1 2.5 2.4.4 1.8.4 3.9.4 5.8s0 3.9-.4 5.8zm-14.3-2c2.5-1.3 5-2.7 7.4-4-2.5-1.4-5-2.7-7.4-4.1v8.1z"/></symbol><symbol id="symbol-zip" viewBox="0 0 36 36"><g fill="none"><path d="M34.217 0H11.395c.82 0 1.552.516 1.837 1.294l1.166 3.657a2.662 2.662 0 0 0 2.494 1.757H34.04c1.082 0 1.96.89 1.96 1.986V1.806C36 .813 35.198 0 34.217 0Z" fill="#FEC458"/><path d="M21.317 4.951 20.15 1.295A1.961 1.961 0 0 0 18.314 0h-6.919c.82 0 1.552.516 1.837 1.295l1.166 3.656a2.662 2.662 0 0 0 2.494 1.757h6.918a2.66 2.66 0 0 1-2.493-1.757Z" fill="#F9AB49"/><path d="M34.04 6.232H17.362a2.663 2.663 0 0 1-2.494-1.757l-1.165-3.18A1.961 1.961 0 0 0 11.866 0H1.96C.878 0 0 .89 0 1.986v25.208c0 1.096.877 1.985 1.96 1.985h32.08c1.082 0 1.96-.889 1.96-1.985V8.217c0-1.096-.878-1.985-1.96-1.985Z" fill="#FFE181"/><path d="M6.273 27.194V1.986C6.273.889 7.151 0 8.233 0H1.96C.878 0 0 .89 0 1.986v25.208c0 1.096.878 1.985 1.96 1.985h6.273c-1.082 0-1.96-.889-1.96-1.985Z" fill="#FEC458"/><path d="M28.724 17.67H7.276c-1.283 0-2.332 1.064-2.332 2.364v13.603c0 1.3 1.05 2.363 2.332 2.363h21.448c1.283 0 2.332-1.063 2.332-2.363V20.034c0-1.3-1.05-2.363-2.332-2.363Z" fill="#9DC6FB"/><path d="M10.163 33.637V20.034c0-1.3 1.05-2.363 2.333-2.363h-5.22c-1.283 0-2.332 1.063-2.332 2.363v13.603c0 1.3 1.05 2.363 2.332 2.363h5.22c-1.283 0-2.333-1.063-2.333-2.363Z" fill="#80B4FB"/><path d="M10.647 30.164h3.79c.417 0 .654.508.654.96 0 .451-.237.96-.655.96H8.502c-.446 0-.627-.24-.627-.58 0-.225.083-.507.237-.775l3.928-7.044H8.808c-.418 0-.655-.451-.655-.96 0-.465.195-.96.655-.96h5.378c.418 0 .627.24.627.58 0 .225-.084.493-.237.776l-3.929 7.043Zm6.176-7.735c0-.466.543-.663 1.086-.663s1.087.197 1.087.663v8.977c0 .452-.544.678-1.087.678-.543 0-1.086-.226-1.086-.678v-8.977Zm8.052-.663H21.99c-.488 0-.808.31-.808.663v8.977c0 .452.543.678 1.087.678.543 0 1.086-.226 1.086-.678v-2.703h1.38c1.922 0 3.427-1.25 3.427-3.62v-.071c0-2.371-1.45-3.246-3.288-3.246Zm1.114 3.486c0 .96-.473 1.411-1.253 1.411h-1.38v-2.978h1.38c.78 0 1.253.452 1.253 1.412v.155Z" fill="#DFEBFA"/></g></symbol><symbol id="symbol-zoom" viewBox="0 0 30 30"><path d="M12.802 0C19.879 0 25.61 5.746 25.61 12.83c0 3.09-1.096 5.93-2.915 8.143l6.937 6.948c.49.49.49 1.282.006 1.773-.478.484-1.451.325-1.77 0l-6.936-6.949a12.726 12.726 0 0 1-8.124 2.913C5.73 25.658 0 19.912 0 12.83S5.724 0 12.802 0Zm.006 2.52C7.12 2.52 2.51 7.132 2.51 12.83c0 5.696 4.61 10.308 10.298 10.308 5.681 0 10.291-4.618 10.291-10.309 0-5.69-4.604-10.309-10.291-10.309Zm-.006 4.784c.692 0 1.249.558 1.249 1.25v3.024h3.018a1.251 1.251 0 0 1 0 2.502h-3.018v3.024c0 .693-.557 1.25-1.25 1.25a1.247 1.247 0 0 1-1.248-1.25V14.08H8.534a1.247 1.247 0 0 1-1.248-1.25c0-.694.557-1.252 1.248-1.252h3.019V8.555c0-.693.557-1.251 1.249-1.251Z"/></symbol></svg>